<svg width="50" height="50" viewBox="0 0 50 50" fill="none" xmlns="http://www.w3.org/2000/svg">
<path d="M20.293 7.03125H1.46484C0.655746 7.03125 0 7.687 0 8.49609V27.3243C0 28.1334 0.655746 28.7891 1.46484 28.7891H9.41391V41.4455C9.41391 42.2543 10.0697 42.9104 10.8788 42.9104H15.5861C16.2167 42.9104 16.7763 42.5068 16.9754 41.9086L21.6824 27.7874C21.7323 27.6382 21.7579 27.4818 21.7579 27.3243V8.49609C21.7579 7.687 21.1021 7.03125 20.293 7.03125V7.03125Z" fill="#E3E3E3"/>
<path d="M48.5352 7.03125H29.707C28.8979 7.03125 28.2421 7.687 28.2421 8.49609V27.3243C28.2421 28.1334 28.8979 28.7891 29.707 28.7891H37.6564V41.4455C37.6564 42.2543 38.3122 42.9104 39.1213 42.9104H43.8282C44.4588 42.9104 45.0184 42.5068 45.2179 41.9086L49.9249 27.7874C49.9745 27.6382 50 27.4818 50 27.3243V8.49609C50 7.687 49.3443 7.03125 48.5352 7.03125V7.03125Z" fill="#E3E3E3"/>
</svg>
