<svg width="50" height="50" viewBox="0 0 50 50" fill="none" xmlns="http://www.w3.org/2000/svg">
<g clip-path="url(#clip0_842_1713)">
<path d="M20.2929 7.03125H1.46466C0.655563 7.03125 -0.000183105 7.687 -0.000183105 8.49609V27.3243C-0.000183105 28.1334 0.655563 28.7891 1.46466 28.7891H9.41373V41.4455C9.41373 42.2543 10.0695 42.9104 10.8786 42.9104H15.5859C16.2165 42.9104 16.7761 42.5068 16.9752 41.9086L21.6822 27.7874C21.7321 27.6382 21.7577 27.4818 21.7577 27.3243V8.49609C21.7577 7.687 21.102 7.03125 20.2929 7.03125V7.03125Z" fill="#0076EC"/>
<path d="M48.535 7.03125H29.7068C28.8977 7.03125 28.2419 7.687 28.2419 8.49609V27.3243C28.2419 28.1334 28.8977 28.7891 29.7068 28.7891H37.6562V41.4455C37.6562 42.2543 38.312 42.9104 39.1211 42.9104H43.828C44.4586 42.9104 45.0182 42.5068 45.2177 41.9086L49.9247 27.7874C49.9743 27.6382 49.9998 27.4818 49.9998 27.3243V8.49609C49.9998 7.687 49.3441 7.03125 48.535 7.03125V7.03125Z" fill="#0076EC"/>
</g>
<defs>
<clipPath id="clip0_842_1713">
<rect width="50" height="50" fill="white"/>
</clipPath>
</defs>
</svg>
