<svg width="57" height="59" viewBox="0 0 57 59" fill="none" xmlns="http://www.w3.org/2000/svg">
<circle opacity="0.1" cx="42" cy="44" r="15" fill="#0076EC"/>
<g clip-path="url(#clip0_937_3)">
<path d="M24.8958 50.4167L19.8958 45.4167L21.3542 43.9584L24.8958 47.5L28.5417 43.9584L30 45.4167L24.8958 50.4167Z" fill="#0076EC"/>
<path d="M23.8542 40.625H25.9375V48.9583H23.8542V40.625Z" fill="#0076EC"/>
<path d="M24.8958 10.8333L19.8958 5.83333L21.3542 4.375L24.8958 7.91667L28.5417 4.375L30 5.83333L24.8958 10.8333Z" fill="#0076EC"/>
<path d="M23.8542 1.04163H25.9375V9.37496H23.8542V1.04163Z" fill="#0076EC"/>
<path d="M24.8958 39.1666C17.7083 39.1666 11.7708 33.2291 11.7708 26.0416C11.7708 18.8541 17.7083 12.9166 24.8958 12.9166C32.0833 12.9166 38.0208 18.8541 38.0208 26.0416C38.0208 33.2291 32.0833 39.1666 24.8958 39.1666ZM24.8958 15C18.8542 15 13.8542 20 13.8542 26.0416C13.8542 32.0833 18.8542 37.0833 24.8958 37.0833C30.9375 37.0833 35.9375 32.0833 35.9375 26.0416C35.9375 20 30.9375 15 24.8958 15Z" fill="#0076EC"/>
<path d="M24.8958 31.4583C21.875 31.4583 19.4792 29.0625 19.4792 26.0417C19.4792 23.0208 21.875 20.625 24.8958 20.625C27.9167 20.625 30.3125 23.0208 30.3125 26.0417C30.3125 29.0625 27.9167 31.4583 24.8958 31.4583ZM24.8958 22.7083C23.0208 22.7083 21.5625 24.1667 21.5625 26.0417C21.5625 27.9167 23.0208 29.375 24.8958 29.375C26.7708 29.375 28.2292 27.9167 28.2292 26.0417C28.2292 24.1667 26.7708 22.7083 24.8958 22.7083Z" fill="#0076EC"/>
<path d="M39.1667 25H42.8125V27.0833H39.1667V25Z" fill="#0076EC"/>
<path d="M7.1875 25H10.8333V27.0833H7.1875V25Z" fill="#0076EC"/>
<path d="M37.2917 17.9166L35.8333 16.4583L38.75 13.5416H42.8125V15.625H39.5833L37.2917 17.9166Z" fill="#0076EC"/>
<path d="M45.9375 18.75C43.6458 18.75 41.7708 16.875 41.7708 14.5833C41.7708 12.2916 43.6458 10.4166 45.9375 10.4166C48.2292 10.4166 50.1042 12.2916 50.1042 14.5833C50.1042 16.875 48.2292 18.75 45.9375 18.75ZM45.9375 12.5C44.7917 12.5 43.8542 13.4375 43.8542 14.5833C43.8542 15.7291 44.7917 16.6666 45.9375 16.6666C47.0834 16.6666 48.0209 15.7291 48.0209 14.5833C48.0209 13.4375 47.0834 12.5 45.9375 12.5Z" fill="#0076EC"/>
<path d="M42.8125 38.5416H38.75L35.8333 35.625L37.2917 34.1666L39.5833 36.4583H42.8125V38.5416Z" fill="#0076EC"/>
<path d="M45.9375 41.6666C43.6458 41.6666 41.7708 39.7916 41.7708 37.4999C41.7708 35.2082 43.6458 33.3333 45.9375 33.3333C48.2292 33.3333 50.1042 35.2082 50.1042 37.4999C50.1042 39.7916 48.2292 41.6666 45.9375 41.6666ZM45.9375 35.4166C44.7917 35.4166 43.8542 36.3541 43.8542 37.4999C43.8542 38.6457 44.7917 39.5832 45.9375 39.5832C47.0834 39.5832 48.0209 38.6457 48.0209 37.4999C48.0209 36.3541 47.0834 35.4166 45.9375 35.4166Z" fill="#0076EC"/>
<path d="M45.9375 30.2083C43.6458 30.2083 41.7708 28.3333 41.7708 26.0417C41.7708 23.75 43.6458 21.875 45.9375 21.875C48.2292 21.875 50.1042 23.75 50.1042 26.0417C50.1042 28.3333 48.2292 30.2083 45.9375 30.2083ZM45.9375 23.9583C44.7917 23.9583 43.8542 24.8958 43.8542 26.0417C43.8542 27.1875 44.7917 28.125 45.9375 28.125C47.0834 28.125 48.0209 27.1875 48.0209 26.0417C48.0209 24.8958 47.0834 23.9583 45.9375 23.9583Z" fill="#0076EC"/>
<path d="M12.7083 17.9166L10.4167 15.625H7.1875V13.5416H11.25L14.1667 16.4583L12.7083 17.9166Z" fill="#0076EC"/>
<path d="M4.06249 18.75C1.77083 18.75 -0.104172 16.875 -0.104172 14.5833C-0.104172 12.2916 1.77083 10.4166 4.06249 10.4166C6.35416 10.4166 8.22916 12.2916 8.22916 14.5833C8.22916 16.875 6.35416 18.75 4.06249 18.75ZM4.06249 12.5C2.91666 12.5 1.97916 13.4375 1.97916 14.5833C1.97916 15.7291 2.91666 16.6666 4.06249 16.6666C5.20833 16.6666 6.14583 15.7291 6.14583 14.5833C6.14583 13.4375 5.20833 12.5 4.06249 12.5Z" fill="#0076EC"/>
<path d="M11.25 38.5416H7.1875V36.4583H10.4167L12.7083 34.1666L14.1667 35.625L11.25 38.5416Z" fill="#0076EC"/>
<path d="M4.06249 41.6666C1.77083 41.6666 -0.104172 39.7916 -0.104172 37.4999C-0.104172 35.2082 1.77083 33.3333 4.06249 33.3333C6.35416 33.3333 8.22916 35.2082 8.22916 37.4999C8.22916 39.7916 6.35416 41.6666 4.06249 41.6666ZM4.06249 35.4166C2.91666 35.4166 1.97916 36.3541 1.97916 37.4999C1.97916 38.6457 2.91666 39.5832 4.06249 39.5832C5.20833 39.5832 6.14583 38.6457 6.14583 37.4999C6.14583 36.3541 5.20833 35.4166 4.06249 35.4166Z" fill="#0076EC"/>
<path d="M4.06249 30.2083C1.77083 30.2083 -0.104172 28.3333 -0.104172 26.0417C-0.104172 23.75 1.77083 21.875 4.06249 21.875C6.35416 21.875 8.22916 23.75 8.22916 26.0417C8.22916 28.3333 6.35416 30.2083 4.06249 30.2083ZM4.06249 23.9583C2.91666 23.9583 1.97916 24.8958 1.97916 26.0417C1.97916 27.1875 2.91666 28.125 4.06249 28.125C5.20833 28.125 6.14583 27.1875 6.14583 26.0417C6.14583 24.8958 5.20833 23.9583 4.06249 23.9583Z" fill="#0076EC"/>
<path d="M23.8542 19.0625H25.9375V21.6667H23.8542V19.0625Z" fill="#0076EC"/>
<path d="M23.8542 30.4166H25.9375V33.0208H23.8542V30.4166Z" fill="#0076EC"/>
<path d="M29.2708 25H31.875V27.0833H29.2708V25Z" fill="#0076EC"/>
<path d="M17.9167 25H20.625V27.0833H17.9167V25Z" fill="#0076EC"/>
<path d="M29.1784 20.3832L30.6516 21.8563L28.8102 23.6977L27.337 22.2246L29.1784 20.3832Z" fill="#0076EC"/>
<path d="M21.1596 28.3002L22.6327 29.7733L20.7913 31.6147L19.3182 30.1416L21.1596 28.3002Z" fill="#0076EC"/>
<path d="M28.7374 28.3L30.5788 30.1415L29.1057 31.6146L27.2643 29.7732L28.7374 28.3Z" fill="#0076EC"/>
<path d="M20.7211 20.3843L22.5625 22.2257L21.0893 23.6988L19.2479 21.8574L20.7211 20.3843Z" fill="#0076EC"/>
</g>
<defs>
<clipPath id="clip0_937_3">
<rect width="50" height="50" fill="white"/>
</clipPath>
</defs>
</svg>
