<svg width="57" height="59" viewBox="0 0 57 59" fill="none" xmlns="http://www.w3.org/2000/svg">
<circle opacity="0.1" cx="42" cy="44" r="15" fill="#5F2DEE"/>
<g clip-path="url(#clip0_839_4)">
<path d="M46.2936 39.8705V32.7522H26.4648V28.7758H39.7316C44.2234 28.7758 47.8779 25.1213 47.8779 20.6295C47.8779 16.6161 44.9398 13.2549 41.1011 12.5996C40.3107 8.24585 36.5211 4.99763 31.9679 4.99763C30.9383 4.99763 29.9129 5.17044 28.9433 5.50423C26.8364 2.12059 23.0904 0 19.0468 0C12.624 0 7.39861 5.22537 7.39861 11.6482C7.39861 12.0918 7.42378 12.5351 7.47375 12.9749C4.30107 14.1235 2.12212 17.1429 2.12212 20.6295C2.12212 25.1217 5.7766 28.7758 10.2684 28.7758H23.5352V32.7522H3.70636V39.8705C1.56631 40.5037 0 42.4862 0 44.8288C0 47.6803 2.31972 50 5.1712 50C8.02231 50 10.342 47.6803 10.342 44.8288C10.342 42.4862 8.77571 40.5037 6.63605 39.8705V35.6819H23.5352V39.8705C21.3951 40.5037 19.8288 42.4862 19.8288 44.8288C19.8288 47.6803 22.1485 50 25 50C27.8515 50 30.1712 47.6803 30.1712 44.8288C30.1712 42.4862 28.6049 40.5037 26.4648 39.8705V35.6819H43.364V39.8705C41.2243 40.5037 39.658 42.4862 39.658 44.8288C39.658 47.6803 41.9777 50 44.8288 50C47.6803 50 50 47.6803 50 44.8288C50 42.4862 48.4337 40.5037 46.2936 39.8705ZM5.0518 20.6295C5.0518 18.0756 6.87675 15.913 9.3914 15.4877L10.9394 15.226L10.5713 13.7001C10.4099 13.0306 10.3279 12.3402 10.3279 11.6486C10.3283 6.8409 14.2395 2.92969 19.0468 2.92969C22.4339 2.92969 25.5417 4.91753 26.9646 7.9937L27.6154 9.40094L28.9833 8.67157C29.9091 8.17757 30.9135 7.92732 31.9679 7.92732C35.3844 7.92732 38.1733 10.5995 38.3167 14.0106L38.3755 15.4037L39.7697 15.414C42.625 15.4346 44.9482 17.7742 44.9482 20.6295C44.9482 23.5062 42.6079 25.8461 39.7316 25.8461H10.2684C7.39174 25.8465 5.0518 23.5062 5.0518 20.6295V20.6295ZM7.41234 44.8288C7.41234 46.0648 6.40717 47.0703 5.1712 47.0703C3.93524 47.0703 2.92969 46.0648 2.92969 44.8288C2.92969 43.5928 3.93524 42.5877 5.1712 42.5877C6.40717 42.5877 7.41234 43.5928 7.41234 44.8288ZM27.2415 44.8288C27.2415 46.0648 26.236 47.0703 25 47.0703C23.764 47.0703 22.7585 46.0648 22.7585 44.8288C22.7585 43.5928 23.764 42.5877 25 42.5877C26.236 42.5877 27.2415 43.5928 27.2415 44.8288ZM44.8288 47.0703C43.5928 47.0703 42.5877 46.0648 42.5877 44.8288C42.5877 43.5928 43.5928 42.5877 44.8288 42.5877C46.0648 42.5877 47.0703 43.5928 47.0703 44.8288C47.0703 46.0648 46.0648 47.0703 44.8288 47.0703Z" fill="#5F2DEE"/>
</g>
<defs>
<clipPath id="clip0_839_4">
<rect width="50" height="50" fill="white"/>
</clipPath>
</defs>
</svg>
