<svg width="25" height="25" viewBox="0 0 25 25" fill="none" xmlns="http://www.w3.org/2000/svg">
<g clip-path="url(#clip0_707_567)">
<path d="M10.7845 2.92932C6.45315 2.92932 2.92932 6.45315 2.92932 10.7845C2.92932 15.1159 6.45315 18.6398 10.7845 18.6398C15.1158 18.6398 18.6396 15.1159 18.6396 10.7845C18.6396 6.45315 15.1158 2.92932 10.7845 2.92932ZM10.7845 17.1749C7.26072 17.1749 4.39397 14.3082 4.39397 10.7845C4.39397 7.26072 7.26072 4.39397 10.7845 4.39397C14.3082 4.39397 17.1749 7.26072 17.1749 10.7845C17.1749 14.3082 14.3082 17.1749 10.7845 17.1749Z" fill="white"/>
<path d="M25 21.5458L19.9366 16.4825C20.9703 14.8281 21.5689 12.875 21.5689 10.7845C21.5689 4.83799 16.7311 0 10.7845 0C4.83799 0 0 4.83799 0 10.7845C0 16.7311 4.83799 21.5691 10.7845 21.5691C12.875 21.5691 14.8279 20.9705 16.4824 19.9368L21.5458 25L25 21.5458ZM1.46465 10.7845C1.46465 5.64556 5.64556 1.46465 10.7845 1.46465C15.9235 1.46465 20.1042 5.64556 20.1042 10.7845C20.1042 15.9235 15.9235 20.1044 10.7845 20.1044C5.64556 20.1044 1.46465 15.9235 1.46465 10.7845ZM19.0666 17.6838L22.9286 21.5458L21.5458 22.9286L17.6838 19.0666C18.1852 18.6481 18.6481 18.1852 19.0666 17.6838Z" fill="white"/>
<path d="M9.88561 12.0495L7.59966 9.7635L6.56396 10.7992L9.88561 14.1208L15.0049 9.00151L13.9692 7.96582L9.88561 12.0495Z" fill="white"/>
</g>
<defs>
<clipPath id="clip0_707_567">
<rect width="25" height="25" fill="white"/>
</clipPath>
</defs>
</svg>
