<svg width="50" height="50" viewBox="0 0 50 50" fill="none" xmlns="http://www.w3.org/2000/svg">
<g clip-path="url(#clip0_762_795)">
<path d="M46.15 8.09972C44.4636 7.68849 42.9198 6.81798 41.6846 5.58317C40.4498 4.34798 39.5793 2.80379 39.168 1.1177L38.8957 0H11.1068L10.8341 1.1177C10.4229 2.80379 9.55274 4.34798 8.31755 5.58317C7.08273 6.81798 5.53855 7.68849 3.85208 8.09972L2.73438 8.37247V18.3765C2.73438 25.2372 4.79812 31.8454 8.70245 37.4873C12.6064 43.1288 18.0641 47.3883 24.4849 49.8056L25.0011 50.0002L25.5172 49.8056C31.9381 47.3883 37.3954 43.1288 41.2997 37.4873C45.204 31.8457 47.2674 25.2372 47.2674 18.3765V8.37208L46.15 8.09972ZM44.3381 18.3761C44.3381 24.6383 42.4544 30.6704 38.8911 35.8199C35.4323 40.8175 30.6384 44.6272 25.0011 46.8645C19.3641 44.6272 14.5702 40.8175 11.1114 35.8199C7.54774 30.6704 5.66405 24.6383 5.66405 18.3761V10.6166C7.43483 10.0029 9.05149 8.99235 10.3893 7.65454C11.7271 6.31673 12.7376 4.70045 13.351 2.92968H36.6511C37.2645 4.70045 38.2754 6.31673 39.6132 7.65454C40.951 8.99235 42.5673 10.0029 44.3381 10.6166V18.3761Z" fill="#5F2DEE"/>
<path d="M35.1222 6.58647L34.6984 5.85901H15.3042L14.8803 6.58647C14.2135 7.73087 13.3995 8.78716 12.4607 9.72595C11.5219 10.6651 10.4652 11.4788 9.32121 12.1456L8.59375 12.5694V18.3761C8.59375 24.0398 10.2974 29.4956 13.5204 34.1529C16.2719 38.1286 20.0241 41.3249 24.3713 43.3955L25.0011 43.6957L25.6309 43.3955C29.9781 41.3249 33.7302 38.1286 36.4821 34.1525C39.7052 29.4952 41.4088 24.0398 41.4088 18.3761V12.5694L40.6813 12.1456C39.5369 11.4788 38.4806 10.6647 37.5418 9.72595C36.6031 8.78716 35.789 7.73087 35.1222 6.58647ZM38.4791 18.3761C38.4791 23.4417 36.9555 28.3206 34.0732 32.4859C31.7462 35.8481 28.6201 38.5863 25.0011 40.4395C21.3825 38.5863 18.2563 35.8481 15.9294 32.4859C13.0466 28.3206 11.5234 23.4417 11.5234 18.3761V14.23C12.6076 13.5288 13.6165 12.7129 14.5321 11.7977C15.4476 10.8822 16.2632 9.8732 16.9647 8.78869H33.0378C33.7394 9.8732 34.5549 10.8822 35.4701 11.7977C36.3856 12.7132 37.395 13.5288 38.4791 14.2303V18.3761Z" fill="#5F2DEE"/>
<path d="M25.0011 14.3546C21.7807 14.3546 19.1604 16.9749 19.1604 20.1953C19.1604 22.9102 21.0224 25.1983 23.5362 25.8498V31.1351H26.4659V25.8498C28.9798 25.1983 30.8418 22.9102 30.8418 20.1953C30.8418 16.9749 28.2218 14.3546 25.0011 14.3546ZM25.0011 23.1063C23.3959 23.1063 22.0901 21.8005 22.0901 20.1953C22.0901 18.5901 23.3959 17.2843 25.0011 17.2843C26.6063 17.2843 27.9124 18.5901 27.9124 20.1953C27.9124 21.8005 26.6063 23.1063 25.0011 23.1063Z" fill="#5F2DEE"/>
</g>
<defs>
<clipPath id="clip0_762_795">
<rect width="50" height="50" fill="white"/>
</clipPath>
</defs>
</svg>
