<svg width="50" height="50" viewBox="0 0 50 50" fill="none" xmlns="http://www.w3.org/2000/svg">
<path d="M50 14.7106V0H0V14.7106H2.93198V17.6449H0V32.3551H2.93198V35.2898H0V50H50V35.2894H47.068V32.3551H50V17.6449H47.068V14.7106H50ZM2.92969 2.92969H47.0703V11.7809H2.92969V2.92969ZM47.0703 47.0703H2.92969V38.2191H47.0703V47.0703ZM44.1383 35.2894H5.86166V32.3551H44.1383V35.2894ZM47.0703 29.4254H2.92969V20.5746H47.0703V29.4254ZM44.1383 17.6449H5.86166V14.7106H44.1383V17.6449Z" fill="#5F2DEE"/>
<path d="M31.4419 5.89026H44.1372V8.81995H31.4419V5.89026Z" fill="#5F2DEE"/>
<path d="M31.4419 23.5352H44.1372V26.4648H31.4419V23.5352Z" fill="#5F2DEE"/>
<path d="M31.4419 41.1801H44.1372V44.1097H31.4419V41.1801Z" fill="#5F2DEE"/>
<path d="M5.86279 5.89026H8.79477V8.81995H5.86279V5.89026Z" fill="#5F2DEE"/>
<path d="M11.7271 5.89026H14.659V8.81995H11.7271V5.89026Z" fill="#5F2DEE"/>
<path d="M5.86279 23.5352H8.79477V26.4648H5.86279V23.5352Z" fill="#5F2DEE"/>
<path d="M11.7271 23.5352H14.659V26.4648H11.7271V23.5352Z" fill="#5F2DEE"/>
<path d="M5.86279 41.1801H8.79477V44.1097H5.86279V41.1801Z" fill="#5F2DEE"/>
<path d="M11.7271 41.1801H14.659V44.1097H11.7271V41.1801Z" fill="#5F2DEE"/>
</svg>
