<svg width="50" height="50" viewBox="0 0 50 50" fill="none" xmlns="http://www.w3.org/2000/svg">
<path d="M24.9781 12.9161C16.3695 12.9161 9.36572 19.9199 9.36572 28.5285C9.36572 37.1368 16.3695 44.1406 24.9781 44.1406C33.5864 44.1406 40.5902 37.1368 40.5902 28.5285C40.5902 19.9199 33.5864 12.9161 24.9781 12.9161ZM37.5754 27.0637H29.1232C28.6807 25.8159 27.6908 24.8256 26.443 24.3835V15.9309C32.2676 16.6042 36.9025 21.2387 37.5754 27.0637ZM24.9781 27.061C25.7868 27.061 26.4453 27.7195 26.4453 28.5285C26.4453 29.3373 25.7868 29.9957 24.9781 29.9957C24.169 29.9957 23.511 29.3373 23.511 28.5285C23.511 27.7195 24.169 27.061 24.9781 27.061ZM24.9781 41.2109C17.985 41.2109 12.2954 35.5217 12.2954 28.5285C12.2954 22.031 17.2076 16.6595 23.5133 15.9309V24.3835C21.807 24.9881 20.5813 26.6174 20.5813 28.5285C20.5813 30.9528 22.5535 32.9254 24.9781 32.9254C26.8889 32.9254 28.5182 31.6993 29.1232 29.9934H37.5754C36.8468 36.2987 31.4757 41.2109 24.9781 41.2109Z" fill="#5F2DEE"/>
<path d="M43.2716 12.3066L45.3457 14.3806L47.4171 12.3093L41.1972 6.0894L39.1258 8.16078L41.1999 10.2352L39.0896 12.3455C36.4208 10.0117 33.2653 8.40111 29.8637 7.61337V2.92969H32.7969V0H17.1593V2.92969H20.0924V7.61337C16.6908 8.40111 13.5353 10.0117 10.8665 12.3455L8.75626 10.2352L10.8303 8.16116L8.75893 6.0894L2.53906 12.3093L4.61082 14.3806L6.68488 12.3066L8.79517 14.4169C5.37491 18.3277 3.50647 23.2841 3.50647 28.5286C3.50647 34.2636 5.73997 39.6557 9.79538 43.7111C13.8512 47.7665 19.2429 50 24.9783 50C30.7133 50 36.1053 47.7665 40.1608 43.7111C44.2162 39.6557 46.4497 34.2636 46.4497 28.5286C46.4497 23.2841 44.5812 18.3277 41.161 14.4169L43.2716 12.3066ZM23.0221 2.92969H26.9341V7.14569C26.2875 7.08771 25.6351 7.05681 24.9783 7.05681C24.3214 7.05681 23.6691 7.08771 23.0225 7.14569V2.92969H23.0221ZM24.9783 47.0703C14.7541 47.0703 6.43616 38.7524 6.43616 28.5286C6.43616 18.3044 14.7541 9.9865 24.9783 9.9865C35.202 9.9865 43.52 18.3044 43.52 28.5286C43.52 38.7524 35.202 47.0703 24.9783 47.0703Z" fill="#5F2DEE"/>
</svg>
