<svg width="60" height="60" viewBox="0 0 60 60" fill="none" xmlns="http://www.w3.org/2000/svg">
<circle opacity="0.1" cx="28" cy="20" r="20" fill="#0076EC"/>
<g clip-path="url(#clip0_1008_6)">
<path d="M46.2547 6.25734C38.6632 6.24703 32.5006 12.3928 32.4902 19.9843C32.4799 27.5758 38.6257 33.7384 46.2172 33.7487C50.6995 33.7548 54.9033 31.5749 57.4811 27.908C57.2496 40.8496 46.7021 51.2249 33.7585 51.2432C33.0684 51.2432 32.5089 51.8027 32.5089 52.4928C32.5089 53.183 33.0684 53.7425 33.7585 53.7425C48.2446 53.726 59.9838 41.9867 60.0003 27.5007V20.003C59.9921 12.4149 53.8429 6.26565 46.2547 6.25734Z" fill="#0076EC"/>
<path d="M13.7644 6.25734C6.17293 6.24703 0.0103222 12.3928 1.29512e-05 19.9844C-0.0102963 27.576 6.13544 33.7384 13.7271 33.7488C18.2094 33.7549 22.4132 31.5751 24.991 27.9081C24.7595 40.8497 14.2119 51.225 1.26841 51.2433C0.57827 51.2433 0.0187571 51.8028 0.0187571 52.4929C0.0187571 53.1831 0.57827 53.7426 1.26841 53.7426C15.7545 53.7261 27.4937 41.9868 27.5102 27.5008V20.0031C27.5019 12.4149 21.3525 6.26565 13.7644 6.25734Z" fill="#0076EC"/>
</g>
<defs>
<clipPath id="clip0_1008_6">
<rect width="60" height="60" fill="white"/>
</clipPath>
</defs>
</svg>
