<svg width="25" height="25" viewBox="0 0 25 25" fill="none" xmlns="http://www.w3.org/2000/svg">
<path d="M2.9314 4.44568H4.39738V5.91052H2.9314V4.44568Z" fill="white"/>
<path d="M5.86359 4.44568H7.32957V5.91052H5.86359V4.44568Z" fill="white"/>
<path d="M8.79553 4.44568H10.2615V5.91052H8.79553V4.44568Z" fill="white"/>
<path d="M0 1.51367V23.5817H25V1.51367H0ZM23.5352 2.97852V7.37782H1.46484V2.97852H23.5352ZM1.46484 22.1169V8.84266H23.5352V22.1169H1.46484Z" fill="white"/>
<path d="M9.16233 11.1019L5.71747 15.4797L9.16233 19.8574L10.3134 18.9516L7.58152 15.4797L10.3134 12.0077L9.16233 11.1019Z" fill="white"/>
<path d="M14.6866 12.0077L17.4185 15.4797L14.6866 18.9516L15.8377 19.8574L19.2825 15.4797L15.8377 11.1019L14.6866 12.0077Z" fill="white"/>
<path d="M11.7676 11.0825H13.2324V19.8769H11.7676V11.0825Z" fill="white"/>
</svg>
