<svg width="25" height="25" viewBox="0 0 25 25" fill="none" xmlns="http://www.w3.org/2000/svg">
<g clip-path="url(#clip0_707_555)">
<path d="M7.08237 4.39795C5.60226 4.39795 4.39796 5.60225 4.39796 7.08235C4.39796 8.56245 5.60226 9.76656 7.08237 9.76656C8.56247 9.76656 9.76658 8.56245 9.76658 7.08235C9.76658 5.60225 8.56247 4.39795 7.08237 4.39795ZM7.08237 8.30172C6.40984 8.30172 5.86281 7.75469 5.86281 7.08235C5.86281 6.40982 6.40984 5.86279 7.08237 5.86279C7.75471 5.86279 8.30173 6.40982 8.30173 7.08235C8.30173 7.75469 7.75471 8.30172 7.08237 8.30172Z" fill="white"/>
<path d="M17.2077 12.0255C17.5768 11.0497 17.7794 9.99298 17.7794 8.88958C17.7794 3.98788 13.7915 0 8.88977 0C3.98788 0 0 3.98788 0 8.88977C0 13.7915 3.98788 17.7794 8.88977 17.7794C9.99298 17.7794 11.0498 17.5768 12.0255 17.2077L19.8177 25H25V19.8177L17.2077 12.0255ZM23.5352 20.4245V22.4993L15.6689 14.6332C15.9895 14.2553 16.279 13.8508 16.5337 13.423L23.5352 20.4245ZM1.46484 8.88977C1.46484 4.79565 4.79565 1.46484 8.88977 1.46484C12.9837 1.46484 16.3145 4.79565 16.3145 8.88977C16.3145 12.9837 12.9837 16.3145 8.88977 16.3145C4.79565 16.3145 1.46484 12.9837 1.46484 8.88977V8.88977ZM13.423 16.5337C13.8508 16.279 14.2555 15.9895 14.6332 15.6691L22.4995 23.5352H20.4245L13.423 16.5337Z" fill="white"/>
</g>
<defs>
<clipPath id="clip0_707_555">
<rect width="25" height="25" fill="white"/>
</clipPath>
</defs>
</svg>
