<svg width="57" height="59" viewBox="0 0 57 59" fill="none" xmlns="http://www.w3.org/2000/svg">
<circle opacity="0.1" cx="42" cy="44" r="15" fill="#5F2DEE"/>
<g clip-path="url(#clip0_839_3)">
<path d="M46.1501 8.09972C44.4637 7.68849 42.9199 6.81798 41.6847 5.58317C40.4499 4.34798 39.5793 2.80379 39.1681 1.1177L38.8958 0H11.1069L10.8342 1.1177C10.423 2.80379 9.55283 4.34798 8.31763 5.58317C7.08282 6.81798 5.53864 7.68849 3.85216 8.09972L2.73446 8.37247V18.3765C2.73446 25.2372 4.79821 31.8454 8.70253 37.4873C12.6065 43.1288 18.0641 47.3883 24.485 49.8056L25.0011 50.0002L25.5173 49.8056C31.9382 47.3883 37.3954 43.1288 41.2998 37.4873C45.2041 31.8457 47.2675 25.2372 47.2675 18.3765V8.37208L46.1501 8.09972ZM44.3382 18.3761C44.3382 24.6383 42.4545 30.6704 38.8912 35.8199C35.4324 40.8175 30.6385 44.6272 25.0011 46.8645C19.3642 44.6272 14.5703 40.8175 11.1115 35.8199C7.54783 30.6704 5.66414 24.6383 5.66414 18.3761V10.6166C7.43492 10.0029 9.05158 8.99235 10.3894 7.65454C11.7272 6.31673 12.7377 4.70045 13.3511 2.92968H36.6512C37.2646 4.70045 38.2755 6.31673 39.6133 7.65454C40.9511 8.99235 42.5674 10.0029 44.3382 10.6166V18.3761Z" fill="#5F2DEE"/>
<path d="M35.1223 6.58647L34.6984 5.85901H15.3042L14.8804 6.58647C14.2136 7.73087 13.3996 8.78716 12.4608 9.72595C11.522 10.6651 10.4653 11.4788 9.32127 12.1456L8.59381 12.5694V18.3761C8.59381 24.0398 10.2975 29.4956 13.5205 34.1529C16.272 38.1286 20.0241 41.3249 24.3713 43.3955L25.0011 43.6957L25.6309 43.3955C29.9782 41.3249 33.7303 38.1286 36.4822 34.1525C39.7052 29.4952 41.4089 24.0398 41.4089 18.3761V12.5694L40.6814 12.1456C39.537 11.4788 38.4807 10.6647 37.5419 9.72595C36.6031 8.78716 35.7891 7.73087 35.1223 6.58647ZM38.4792 18.3761C38.4792 23.4417 36.9556 28.3206 34.0732 32.4859C31.7463 35.8481 28.6201 38.5863 25.0011 40.4395C21.3825 38.5863 18.2564 35.8481 15.9294 32.4859C13.0467 28.3206 11.5235 23.4417 11.5235 18.3761V14.23C12.6076 13.5288 13.6166 12.7129 14.5321 11.7977C15.4477 10.8822 16.2632 9.8732 16.9648 8.78869H33.0379C33.7394 9.8732 34.555 10.8822 35.4702 11.7977C36.3857 12.7132 37.395 13.5288 38.4792 14.2303V18.3761Z" fill="#5F2DEE"/>
<path d="M25.0012 14.3546C21.7808 14.3546 19.1605 16.9749 19.1605 20.1953C19.1605 22.9102 21.0224 25.1983 23.5363 25.8498V31.1351H26.466V25.8498C28.9799 25.1983 30.8418 22.9102 30.8418 20.1953C30.8418 16.9749 28.2219 14.3546 25.0012 14.3546ZM25.0012 23.1063C23.3959 23.1063 22.0902 21.8005 22.0902 20.1953C22.0902 18.5901 23.3959 17.2843 25.0012 17.2843C26.6064 17.2843 27.9125 18.5901 27.9125 20.1953C27.9125 21.8005 26.6064 23.1063 25.0012 23.1063Z" fill="#5F2DEE"/>
</g>
<defs>
<clipPath id="clip0_839_3">
<rect width="50" height="50" fill="white"/>
</clipPath>
</defs>
</svg>
