<svg width="50" height="50" viewBox="0 0 50 50" fill="none" xmlns="http://www.w3.org/2000/svg">
<g opacity="0.3">
<path d="M43.3333 50C41.3542 50 39.4792 49.1667 38.2292 47.6042L27.3958 34.8958L28.4375 34.2708C29.6875 33.5417 30.8333 32.7083 31.7708 31.7708C32.9167 30.5208 33.75 29.4792 34.2708 28.4375L34.8958 27.3958L47.6042 38.2292C49.0625 39.4792 49.8958 41.3542 50 43.2292C50 45.1042 49.375 46.7708 48.0208 48.125C46.7708 49.2708 45.1042 50 43.3333 50ZM30.5208 35.4167L39.7917 46.25C40.7292 47.2917 41.9792 47.9167 43.3333 47.9167C44.5833 47.9167 45.7292 47.3958 46.5625 46.5625C47.5 45.625 48.0208 44.4792 47.9167 43.2292C47.9167 41.875 47.2917 40.625 46.25 39.7917L35.4167 30.5208C34.8958 31.3542 34.1667 32.1875 33.2292 33.2292C32.5 34.0625 31.5625 34.7917 30.5208 35.4167Z" fill="#0076EC"/>
<path d="M19.4792 38.9583C8.75 38.9583 0 30.2083 0 19.4792C0 8.75 8.75 0 19.4792 0C30.2083 0 38.9583 8.75 38.9583 19.4792C38.9583 30.2083 30.2083 38.9583 19.4792 38.9583ZM19.4792 2.08333C9.89583 2.08333 2.08333 9.89583 2.08333 19.4792C2.08333 29.0625 9.89583 36.875 19.4792 36.875C29.0625 36.875 36.875 29.0625 36.875 19.4792C36.875 9.89583 29.0625 2.08333 19.4792 2.08333Z" fill="#0076EC"/>
<path d="M19.4792 34.2708C11.3542 34.2708 4.6875 27.6042 4.6875 19.4792C4.6875 11.3542 11.3542 4.6875 19.4792 4.6875C27.6042 4.6875 34.2708 11.3542 34.2708 19.4792C34.2708 27.6042 27.6042 34.2708 19.4792 34.2708ZM19.4792 6.77083C12.5 6.77083 6.77083 12.5 6.77083 19.4792C6.77083 26.4583 12.5 32.1875 19.4792 32.1875C26.4583 32.1875 32.1875 26.4583 32.1875 19.4792C32.1875 12.5 26.4583 6.77083 19.4792 6.77083Z" fill="#0076EC"/>
<path d="M19.4792 38.9583C8.75 38.9583 0 30.2083 0 19.4792C0 8.75 8.75 0 19.4792 0C30.2083 0 38.9583 8.75 38.9583 19.4792C38.9583 30.2083 30.2083 38.9583 19.4792 38.9583ZM19.4792 2.08333C9.89583 2.08333 2.08333 9.89583 2.08333 19.4792C2.08333 29.0625 9.89583 36.875 19.4792 36.875C29.0625 36.875 36.875 29.0625 36.875 19.4792C36.875 9.89583 29.0625 2.08333 19.4792 2.08333Z" fill="#0076EC"/>
<path d="M25.8333 14.0625H27.9167V26.4583H25.8333V14.0625Z" fill="#0076EC"/>
<path d="M21.6667 16.1458H23.75V26.4584H21.6667V16.1458Z" fill="#0076EC"/>
<path d="M17.6042 18.2292H19.6875V26.4583H17.6042V18.2292Z" fill="#0076EC"/>
<path d="M13.5417 20.3125H15.625V26.4583H13.5417V20.3125Z" fill="#0076EC"/>
<path d="M9.375 22.3958H11.4583V26.4584H9.375V22.3958Z" fill="#0076EC"/>
<path d="M10.8333 20.1042H7.29167V18.0208H10L13.5417 14.5833H18.2292L22.5 10.2083H27.1875V12.2917H23.3333L19.0625 16.6667H14.375L10.8333 20.1042Z" fill="#0076EC"/>
</g>
</svg>
