<svg width="50" height="50" viewBox="0 0 50 50" fill="none" xmlns="http://www.w3.org/2000/svg">
<g opacity="0.3" clip-path="url(#clip0_839_561)">
<path d="M25.7291 15.1042H2.08331V8.33334H25.7291V15.1042ZM4.16665 13.0208H23.6458V10.4167H4.16665V13.0208Z" fill="#0076EC"/>
<path d="M21.3541 28.125H2.08331V21.3542H21.3541V28.125ZM4.16665 26.0417H19.2708V23.4375H4.16665V26.0417Z" fill="#0076EC"/>
<path d="M27.7083 10.4167H0V0H27.7083V10.4167ZM2.08333 8.33333H25.625V2.08333H2.08333V8.33333Z" fill="#0076EC"/>
<path d="M21.3542 23.4375H0V13.0208H27.7083V21.7708H25.625C24.1667 21.7708 22.7083 21.4583 21.3542 20.9375V23.4375ZM2.08333 21.3542H19.2708V17.7083L20.7292 18.5417C22.2917 19.375 23.8542 19.7917 25.5208 19.7917V15.2083H2.08333V21.3542Z" fill="#0076EC"/>
<path d="M23.9583 36.4583H0V26.0417H21.25L21.3542 26.9792C21.5625 29.6875 22.1875 32.3958 23.3333 35L23.9583 36.4583ZM2.08333 34.375H20.8333C20.1042 32.2917 19.5833 30.2083 19.375 28.125H2.08333V34.375Z" fill="#0076EC"/>
<path d="M4.47919 4.16666H6.56252V6.24999H4.47919V4.16666Z" fill="#0076EC"/>
<path d="M8.64587 4.16666H10.7292V6.24999H8.64587V4.16666Z" fill="#0076EC"/>
<path d="M12.8125 4.16666H14.8958V6.24999H12.8125V4.16666Z" fill="#0076EC"/>
<path d="M16.9792 4.16666H19.0625V6.24999H16.9792V4.16666Z" fill="#0076EC"/>
<path d="M21.1459 4.16666H23.2292V6.24999H21.1459V4.16666Z" fill="#0076EC"/>
<path d="M4.47919 17.1875H6.56252V19.2708H4.47919V17.1875Z" fill="#0076EC"/>
<path d="M8.64581 17.1875H10.7291V19.2708H8.64581V17.1875Z" fill="#0076EC"/>
<path d="M12.8125 17.1875H14.8958V19.2708H12.8125V17.1875Z" fill="#0076EC"/>
<path d="M4.47919 30.2083H6.56252V32.2917H4.47919V30.2083Z" fill="#0076EC"/>
<path d="M8.64581 30.2083H10.7291V32.2917H8.64581V30.2083Z" fill="#0076EC"/>
<path d="M12.8125 30.2083H14.8958V32.2917H12.8125V30.2083Z" fill="#0076EC"/>
<path d="M34.5834 50.3125L28.5417 45.3125C22.6042 40.4167 19.1667 33.125 19.1667 25.4167V17.7083L20.625 18.5417C22.0834 19.375 23.8542 19.7917 25.4167 19.7917C28.6459 19.7917 31.6667 18.2292 33.6459 15.5208L34.4792 14.375L35.3125 15.5208C37.1875 18.2292 40.3125 19.7917 43.5417 19.7917C45.2084 19.7917 46.875 19.375 48.3334 18.5417L50 17.7083V25.4167C50 33.125 46.5625 40.3125 40.625 45.2083L34.5834 50.3125ZM21.25 20.9375V25.4167C21.25 32.5 24.375 39.1667 29.7917 43.6458L34.5834 47.6042L39.375 43.5417C44.7917 39.1667 47.9167 32.5 47.9167 25.4167V20.9375C46.5625 21.4583 45 21.7708 43.6459 21.7708C40.1042 21.7708 36.875 20.3125 34.5834 17.7083C32.1875 20.3125 28.9584 21.7708 25.5209 21.7708C24.0625 21.7708 22.6042 21.4583 21.25 20.9375Z" fill="#0076EC"/>
<path d="M34.5834 38.8542C30.8334 38.8542 27.7084 35.7292 27.7084 31.9792C27.7084 28.2292 30.8334 25.1042 34.5834 25.1042C38.3334 25.1042 41.4584 28.2292 41.4584 31.9792C41.4584 35.7292 38.3334 38.8542 34.5834 38.8542ZM34.5834 27.1875C31.9792 27.1875 29.7917 29.375 29.7917 31.9792C29.7917 34.5833 31.9792 36.7708 34.5834 36.7708C37.1875 36.7708 39.375 34.5833 39.375 31.9792C39.375 29.375 37.1875 27.1875 34.5834 27.1875Z" fill="#0076EC"/>
<path d="M33.75 34.7917L30.8334 31.875L32.2917 30.4167L33.75 31.875L40.1042 25.4167L41.5625 26.875L33.75 34.7917Z" fill="#0076EC"/>
<path d="M33.75 34.7917L30.8333 31.875L32.2916 30.4167L33.75 31.875L40.1041 25.4167L41.5625 26.875L33.75 34.7917Z" fill="#0076EC"/>
<path d="M33.75 34.7917L30.8333 31.875L32.2916 30.4167L33.75 31.875L40.1041 25.4167L41.5625 26.875L33.75 34.7917Z" fill="#0076EC"/>
<path d="M34.6875 38.8542C30.9375 38.8542 27.8125 35.7292 27.8125 31.9792C27.8125 28.2292 30.9375 25.1042 34.6875 25.1042C36.7708 25.1042 38.6458 25.9375 39.8958 27.5C40.9375 28.75 41.5625 30.3125 41.5625 31.9792C41.5625 35.7292 38.4375 38.8542 34.6875 38.8542ZM34.6875 27.1875C32.0833 27.1875 29.8958 29.375 29.8958 31.9792C29.8958 34.5833 32.0833 36.7708 34.6875 36.7708C37.2917 36.7708 39.4792 34.5833 39.4792 31.9792C39.4792 30.8333 39.0625 29.6875 38.2292 28.8542C37.3958 27.7083 36.1458 27.1875 34.6875 27.1875Z" fill="#0076EC"/>
<path d="M34.6875 38.8542C30.9375 38.8542 27.8125 35.7292 27.8125 31.9792C27.8125 28.2292 30.9375 25.1042 34.6875 25.1042C36.7708 25.1042 38.6458 25.9375 39.8958 27.5C40.9375 28.75 41.5625 30.3125 41.5625 31.9792C41.5625 35.7292 38.4375 38.8542 34.6875 38.8542ZM34.6875 27.1875C32.0833 27.1875 29.8958 29.375 29.8958 31.9792C29.8958 34.5833 32.0833 36.7708 34.6875 36.7708C37.2917 36.7708 39.4792 34.5833 39.4792 31.9792C39.4792 30.8333 39.0625 29.6875 38.2292 28.8542C37.3958 27.7083 36.1458 27.1875 34.6875 27.1875Z" fill="#0076EC"/>
<path d="M33.75 34.7917L30.8333 31.875L32.2916 30.4167L33.75 31.875L40.1041 25.4167L41.5625 26.875L33.75 34.7917Z" fill="#0076EC"/>
<path d="M33.8648 2.59436L35.9333 2.84225L35.3136 8.01359L33.2451 7.76569L33.8648 2.59436Z" fill="#0076EC"/>
<path d="M41.8234 5.07343L43.2818 6.56301L38.0682 11.6672L36.6099 10.1776L41.8234 5.07343Z" fill="#0076EC"/>
<path d="M45.5558 12.3431L45.7996 14.4121L40.5236 15.0338L40.2798 12.9648L45.5558 12.3431Z" fill="#0076EC"/>
</g>
<defs>
<clipPath id="clip0_839_561">
<rect width="50" height="50" fill="white"/>
</clipPath>
</defs>
</svg>
