<svg width="50" height="50" viewBox="0 0 50 50" fill="none" xmlns="http://www.w3.org/2000/svg">
<path d="M4.89583 9.89583C2.1875 9.89583 0 7.60417 0 4.89583C0 2.29167 2.29167 0 4.89583 0C7.60417 0 9.79167 2.1875 9.79167 4.89583C9.89583 6.14583 9.375 7.39583 8.4375 8.33333C7.60417 9.375 6.25 9.89583 4.89583 9.89583V9.89583ZM4.89583 2.08333C3.4375 2.08333 2.08333 3.4375 2.08333 4.89583C2.08333 6.45833 3.33333 7.8125 4.89583 7.8125C5.72917 7.8125 6.45833 7.5 6.97917 6.97917C7.5 6.45833 7.70833 5.72917 7.70833 5C7.70833 3.33333 6.45833 2.08333 4.89583 2.08333V2.08333Z" fill="#0076EC"/>
<path d="M23.2292 9.89583H13.3333V0H23.2292V9.89583ZM15.4167 7.8125H21.1458V2.08333H15.4167V7.8125Z" fill="#0076EC"/>
<path d="M31.6667 9.89585C28.9583 9.89585 26.7708 7.70835 26.7708 5.00002C26.7708 2.29169 28.9583 0.104187 31.6667 0.104187C34.375 0.104187 36.5625 2.29169 36.5625 5.00002C36.6667 6.25002 36.1458 7.39585 35.3125 8.33335C34.375 9.37502 33.0208 9.89585 31.6667 9.89585ZM31.6667 2.18752C30.1042 2.18752 28.8542 3.43752 28.8542 5.00002C28.8542 6.56252 30.1042 7.81252 31.6667 7.81252C32.5 7.81252 33.2292 7.50002 33.75 6.87502C34.2708 6.35419 34.4792 5.72919 34.4792 5.00002C34.4792 3.43752 33.2292 2.18752 31.6667 2.18752V2.18752Z" fill="#0076EC"/>
<path d="M50 9.89583H40.1042V0H50V9.89583ZM42.1875 7.8125H47.9167V2.08333H42.1875V7.8125Z" fill="#0076EC"/>
<path d="M9.89583 23.2291H0V13.3333H9.89583V23.2291ZM2.08333 21.1458H7.8125V15.4166H2.08333V21.1458Z" fill="#0076EC"/>
<path d="M18.3333 23.2292C15.625 23.2292 13.4375 21.0417 13.4375 18.3333C13.4375 15.625 15.625 13.4375 18.3333 13.4375C21.0417 13.4375 23.2292 15.625 23.2292 18.3333C23.2292 20.9375 20.9375 23.2292 18.3333 23.2292ZM18.3333 15.5208C16.7708 15.5208 15.5208 16.7708 15.5208 18.3333C15.5208 19.8958 16.7708 21.1458 18.3333 21.1458C19.7917 21.1458 21.1458 19.7917 21.1458 18.3333C21.1458 16.7708 19.8958 15.5208 18.3333 15.5208V15.5208Z" fill="#0076EC"/>
<path d="M36.6667 23.2291H26.7708V13.3333H36.6667V23.2291ZM28.8542 21.1458H34.5833V15.4166H28.8542V21.1458Z" fill="#0076EC"/>
<path d="M45.1042 23.2292C42.3958 23.2292 40.2083 21.0417 40.2083 18.3333C40.2083 15.625 42.3958 13.4375 45.1042 13.4375C47.8125 13.4375 50 15.625 50 18.3333C50 20.9375 47.7083 23.2292 45.1042 23.2292ZM45.1042 15.5208C43.5417 15.5208 42.2917 16.7708 42.2917 18.3333C42.2917 19.8958 43.5417 21.1458 45.1042 21.1458C46.5625 21.1458 47.9167 19.7917 47.9167 18.3333C47.9167 16.7708 46.6667 15.5208 45.1042 15.5208V15.5208Z" fill="#0076EC"/>
<path d="M4.89583 36.6667C2.1875 36.6667 0 34.4792 0 31.7708C0 29.0625 2.1875 26.875 4.89583 26.875C7.60417 26.875 9.79167 29.0625 9.79167 31.7708C9.89583 33.0208 9.375 34.1667 8.54167 35.1042C7.60417 36.1458 6.25 36.6667 4.89583 36.6667V36.6667ZM4.89583 28.9583C3.33333 28.9583 2.08333 30.2083 2.08333 31.7708C2.08333 33.3333 3.33333 34.5833 4.89583 34.5833C5.72917 34.5833 6.45833 34.2708 6.97917 33.6458C7.5 33.125 7.70833 32.5 7.70833 31.7708C7.70833 30.2083 6.45833 28.9583 4.89583 28.9583Z" fill="#0076EC"/>
<path d="M23.2292 36.6666H13.3333V26.7708H23.2292V36.6666ZM15.4167 34.5833H21.1458V28.8541H15.4167V34.5833Z" fill="#0076EC"/>
<path d="M31.6667 36.6667C28.9583 36.6667 26.7708 34.4792 26.7708 31.7708C26.7708 29.0625 28.9583 26.875 31.6667 26.875C34.375 26.875 36.5625 29.0625 36.5625 31.7708C36.6667 33.0208 36.1458 34.1667 35.3125 35.1042C34.375 36.1458 33.0208 36.6667 31.6667 36.6667ZM31.6667 28.9583C30.1042 28.9583 28.8542 30.2083 28.8542 31.7708C28.8542 33.3333 30.1042 34.5833 31.6667 34.5833C32.5 34.5833 33.2292 34.2708 33.75 33.6458C34.2708 33.125 34.4792 32.5 34.4792 31.7708C34.4792 30.2083 33.2292 28.9583 31.6667 28.9583V28.9583Z" fill="#0076EC"/>
<path d="M50 36.6666H40.1042V26.7708H50V36.6666ZM42.1875 34.5833H47.9167V28.8541H42.1875V34.5833Z" fill="#0076EC"/>
<path d="M9.89583 50H0V40.1042H9.89583V50ZM2.08333 47.9167H7.8125V42.1875H2.08333V47.9167Z" fill="#0076EC"/>
<path d="M18.3333 50C15.625 50 13.4375 47.8125 13.4375 45.1042C13.4375 42.3959 15.625 40.2084 18.3333 40.2084C21.0417 40.2084 23.2292 42.3959 23.2292 45.1042C23.2292 47.7084 20.9375 50 18.3333 50ZM18.3333 42.2917C16.7708 42.2917 15.5208 43.5417 15.5208 45.1042C15.5208 46.6667 16.7708 47.9167 18.3333 47.9167C19.7917 47.9167 21.1458 46.5625 21.1458 45.1042C21.1458 43.5417 19.8958 42.2917 18.3333 42.2917Z" fill="#0076EC"/>
<path d="M36.6666 50H26.7708V40.1042H36.6666V50ZM28.8541 47.9167H34.5833V42.1875H28.8541V47.9167Z" fill="#0076EC"/>
<path d="M45.1042 50C42.3958 50 40.2083 47.8125 40.2083 45.1042C40.2083 42.3959 42.3958 40.2084 45.1042 40.2084C47.8125 40.2084 50 42.3959 50 45.1042C50 47.7084 47.7083 50 45.1042 50ZM45.1042 42.2917C43.5417 42.2917 42.2917 43.5417 42.2917 45.1042C42.2917 46.6667 43.5417 47.9167 45.1042 47.9167C46.5625 47.9167 47.9167 46.5625 47.9167 45.1042C47.9167 43.5417 46.6667 42.2917 45.1042 42.2917Z" fill="#0076EC"/>
</svg>
