<svg width="57" height="59" viewBox="0 0 57 59" fill="none" xmlns="http://www.w3.org/2000/svg">
<circle opacity="0.1" cx="42" cy="44" r="15" fill="#0076EC"/>
<g clip-path="url(#clip0_937_2)">
<path d="M12.2917 1.04163H14.375V6.56246H12.2917V1.04163Z" fill="#0076EC"/>
<path d="M12.2917 20.2084H14.375V25.7292H12.2917V20.2084Z" fill="#0076EC"/>
<path d="M1.04166 12.3959H6.5625V14.4792H1.04166V12.3959Z" fill="#0076EC"/>
<path d="M21.4072 3.96008L22.8803 5.43322L19.0502 9.26338L17.577 7.79024L21.4072 3.96008Z" fill="#0076EC"/>
<path d="M18.9043 17.5007L22.7344 21.3309L21.2613 22.804L17.4311 18.9739L18.9043 17.5007Z" fill="#0076EC"/>
<path d="M11.1458 50.0001H4.27084V38.0209H11.1458V50.0001ZM6.35417 47.9167H9.0625V40.1042H6.35417V47.9167Z" fill="#0076EC"/>
<path d="M15.8333 50H8.95834V30.9375H15.8333V50ZM11.0417 47.9167H13.75V33.0208H11.0417V47.9167Z" fill="#0076EC"/>
<path d="M26.0417 50.0001H19.1667V38.0209H26.0417V50.0001ZM21.25 47.9167H23.9583V40.1042H21.25V47.9167Z" fill="#0076EC"/>
<path d="M30.8333 50H23.9583V30.9375H30.8333V50ZM26.0417 47.9167H28.75V33.0208H26.0417V47.9167Z" fill="#0076EC"/>
<path d="M41.0417 50.0001H34.1667V38.0209H41.0417V50.0001ZM36.25 47.9167H38.9583V40.1042H36.25V47.9167Z" fill="#0076EC"/>
<path d="M45.8333 50H38.9583V30.9375H45.8333V50ZM41.0417 47.9167H43.75V33.0208H41.0417V47.9167Z" fill="#0076EC"/>
<path d="M0 47.9166H50V50H0V47.9166Z" fill="#0076EC"/>
<path d="M13.3333 26.7708C5.9375 26.7708 0 20.8333 0 13.4375C0 6.04167 5.9375 0 13.3333 0C20.7292 0 26.7708 6.04167 26.7708 13.4375C26.7708 20.8333 20.7292 26.7708 13.3333 26.7708ZM13.3333 2.08333C7.08333 2.08333 2.08333 7.1875 2.08333 13.4375C2.08333 19.6875 7.08333 24.6875 13.3333 24.6875C19.5833 24.6875 24.6875 19.6875 24.6875 13.4375C24.6875 7.1875 19.5833 2.08333 13.3333 2.08333ZM13.3333 21.25C8.95833 21.25 5.41667 17.7083 5.41667 13.3333C5.41667 8.95833 8.95833 5.41667 13.3333 5.41667C17.7083 5.41667 21.25 8.95833 21.25 13.3333C21.25 17.8125 17.8125 21.25 13.3333 21.25ZM13.3333 7.5C10.1042 7.5 7.5 10.1042 7.5 13.3333C7.5 16.5625 10.1042 19.1667 13.3333 19.1667C16.5625 19.1667 19.1667 16.5625 19.1667 13.3333C19.1667 10.1042 16.5625 7.5 13.3333 7.5Z" fill="#0076EC"/>
<path d="M36.9792 0H50V2.08333H36.9792V0Z" fill="#0076EC"/>
<path d="M36.9792 5.10413H50V7.18746H36.9792V5.10413Z" fill="#0076EC"/>
<path d="M36.875 10.2084H39.4792V12.2917H36.875V10.2084Z" fill="#0076EC"/>
<path d="M42.1875 10.2084H44.6875V12.2917H42.1875V10.2084Z" fill="#0076EC"/>
<path d="M47.3958 10.2084H50V12.2917H47.3958V10.2084Z" fill="#0076EC"/>
<path d="M24.5833 28.5417L23.125 27.0833L29.8958 20.3125L33.4375 23.8542L41.1458 16.1458L44.8958 19.8958L49.1667 15.625L50.625 17.0833L44.8958 22.8125L41.1458 19.0625L33.4375 26.7708L29.8958 23.2292L24.5833 28.5417Z" fill="#0076EC"/>
</g>
<defs>
<clipPath id="clip0_937_2">
<rect width="50" height="50" fill="white"/>
</clipPath>
</defs>
</svg>
