<svg width="50" height="50" viewBox="0 0 50 50" fill="none" xmlns="http://www.w3.org/2000/svg">
<g clip-path="url(#clip0_724_235)">
<path d="M47.068 41.2041V9.77097H39.4768V5.35469L38.3591 5.08194C36.4231 4.60968 34.8667 3.05367 34.3948 1.11771L34.1221 0H15.8779L15.6055 1.11771C15.1333 3.05367 13.5769 4.60968 11.6409 5.08194L10.5232 5.35469V9.77135H2.93198V41.2041H0V49.9977H50V41.2041H47.068ZM14.3539 24.3095C16.8598 27.9305 20.3625 30.6644 24.4839 32.2163L25 32.4104L25.5161 32.2163C29.6371 30.6644 33.1402 27.9305 35.6461 24.3095C36.8797 22.5269 37.8265 20.5936 38.4705 18.565H44.138V35.3397H5.86166V18.565H11.5295C12.1735 20.5936 13.1203 22.5269 14.3539 24.3095ZM44.1383 15.6353H39.1777C39.3398 14.6698 39.4363 13.6902 39.4661 12.7007H44.1383V15.6353ZM13.4529 7.57179C15.5758 6.72722 17.2504 5.05257 18.095 2.92969H31.905C32.7496 5.05257 34.4242 6.72722 36.5471 7.57179V12.043C36.5471 15.8482 35.4023 19.5133 33.2371 22.6421C31.1771 25.6187 28.3375 27.9018 25 29.2713C21.6621 27.9018 18.8229 25.6191 16.7629 22.6421C14.5973 19.5133 13.4529 15.8482 13.4529 12.043V7.57179ZM10.5339 12.7007C10.5637 13.6902 10.6602 14.6698 10.8223 15.6353H5.86166V12.7007H10.5339ZM5.86166 38.2694H44.1383V41.2041H5.86166V38.2694ZM47.0703 47.068H2.92969V44.1338H47.0703V47.068Z" fill="#5F2DEE"/>
<path d="M23.5352 17.9134V21.8601H26.4649V17.9134C28.4668 17.2882 29.9244 15.4167 29.9244 13.2114C29.9244 10.4961 27.7153 8.28741 25 8.28741C22.2847 8.28741 20.0756 10.4961 20.0756 13.2114C20.0756 15.4167 21.5328 17.2882 23.5352 17.9134ZM25 11.2171C26.0998 11.2171 26.9947 12.1116 26.9947 13.2114C26.9947 14.3116 26.0998 15.2061 25 15.2061C23.9002 15.2061 23.0053 14.3116 23.0053 13.2114C23.0053 12.1116 23.9002 11.2171 25 11.2171Z" fill="#5F2DEE"/>
</g>
<defs>
<clipPath id="clip0_724_235">
<rect width="50" height="50" fill="white"/>
</clipPath>
</defs>
</svg>
