<svg width="50" height="50" viewBox="0 0 50 50" fill="none" xmlns="http://www.w3.org/2000/svg">
<path d="M30.0583 50H19.9417L18.6184 45.4472C17.3893 45.0626 16.1972 44.5679 15.0578 43.9686L10.899 46.2543L3.74565 39.101L6.03104 34.9422C5.43213 33.8028 4.93736 32.6107 4.55284 31.3816L0 30.0583V19.9417L4.55284 18.6184C4.93736 17.3893 5.43213 16.1972 6.03142 15.0578L3.74565 10.899L10.899 3.74565L15.0578 6.03104C16.1972 5.43213 17.3893 4.93736 18.6184 4.55284L19.9417 0H30.0583L31.3816 4.55284C32.6107 4.93736 33.8028 5.43213 34.9422 6.03142L39.101 3.74565L46.2543 10.899L43.969 15.0578C44.5679 16.1972 45.0626 17.3893 45.4472 18.6184L50 19.9417V30.0583L45.4472 31.3816C45.0626 32.6107 44.5679 33.8028 43.9686 34.9422L46.2543 39.101L39.101 46.2543L34.9422 43.969C33.8028 44.5679 32.6107 45.0626 31.3816 45.4472L30.0583 50ZM22.1413 47.0703H27.8587L29.0226 43.0664L29.8176 42.8516C31.3541 42.4366 32.8316 41.8232 34.2094 41.0282L34.9239 40.6158L38.5845 42.6277L42.6277 38.5845L40.6158 34.9239L41.0282 34.2094C41.8232 32.832 42.4366 31.3541 42.8516 29.8176L43.0664 29.0226L47.0703 27.8587V22.1413L43.0664 20.9774L42.8516 20.1824C42.4366 18.6459 41.8232 17.1684 41.0282 15.7906L40.6158 15.0761L42.6277 11.4155L38.5845 7.37267L34.9239 9.38416L34.2094 8.97179C32.8316 8.1768 31.3541 7.5634 29.8176 7.14836L29.0226 6.93359L27.8587 2.92969H22.1413L20.9774 6.93359L20.1824 7.14836C18.6459 7.5634 17.1684 8.1768 15.7906 8.97179L15.0761 9.38416L11.4155 7.37228L7.37228 11.4155L9.38416 15.0761L8.97179 15.7906C8.1768 17.168 7.5634 18.6459 7.14836 20.1824L6.93359 20.9774L2.92969 22.1413V27.8587L6.93359 29.0226L7.14836 29.8176C7.5634 31.3541 8.1768 32.8316 8.97179 34.2094L9.38416 34.9239L7.37228 38.5845L11.4155 42.6277L15.0761 40.6158L15.7906 41.0282C17.168 41.8232 18.6459 42.4366 20.1824 42.8516L20.9774 43.0664L22.1413 47.0703Z" fill="#5F2DEE"/>
<path d="M25 31.8535C21.2212 31.8535 18.1465 28.7792 18.1465 25C18.1465 21.2208 21.2208 18.1465 25 18.1465C28.7792 18.1465 31.8535 21.2208 31.8535 25C31.8535 28.7792 28.7788 31.8535 25 31.8535ZM25 21.0762C22.8363 21.0762 21.0762 22.8363 21.0762 25C21.0762 27.1637 22.8363 28.9238 25 28.9238C27.1637 28.9238 28.9238 27.1637 28.9238 25C28.9238 22.8363 27.1637 21.0762 25 21.0762Z" fill="#5F2DEE"/>
<path d="M25 37.7129C17.9901 37.7129 12.2871 32.0099 12.2871 25C12.2871 17.9901 17.9901 12.2871 25 12.2871C32.0099 12.2871 37.7129 17.9901 37.7129 25C37.7129 32.0099 32.0099 37.7129 25 37.7129ZM25 15.2168C19.6056 15.2168 15.2168 19.6056 15.2168 25C15.2168 30.3944 19.6056 34.7832 25 34.7832C30.3944 34.7832 34.7832 30.3944 34.7832 25C34.7832 19.6056 30.3944 15.2168 25 15.2168Z" fill="#5F2DEE"/>
</svg>
