<svg width="50" height="50" viewBox="0 0 50 50" fill="none" xmlns="http://www.w3.org/2000/svg">
<g clip-path="url(#clip0_724_226)">
<path d="M5.86279 41.2064H17.67V44.136H5.86279V41.2064Z" fill="#5F2DEE"/>
<path d="M39.6984 35.342V29.4781H26.4648V26.5438H38.459C42.6331 26.5438 46.0285 23.148 46.0285 18.9743C46.0285 15.2756 43.3422 12.1731 39.8186 11.5288C39.0518 7.53517 35.5579 4.56581 31.3663 4.56581C30.4451 4.56581 29.5277 4.71535 28.6568 5.00336C26.6991 1.9249 23.2655 0 19.561 0C13.623 0 8.79211 4.83093 8.79211 10.7689C8.79211 11.1454 8.81195 11.5219 8.85086 11.8961C5.9536 12.9887 3.97148 15.7688 3.97148 18.9743C3.97148 23.148 7.36694 26.5438 11.541 26.5438H23.5352V29.4781H10.3016V35.342H0V50H23.5329V35.342H13.2313V32.4078H36.7687V35.342H26.4671V50H50V35.342H39.6984ZM6.90117 18.9743C6.90117 16.7027 8.52432 14.7797 10.7605 14.4012L12.3085 14.1396L11.9404 12.6137C11.7954 12.0117 11.7218 11.3911 11.7218 10.7689C11.7218 6.44608 15.2386 2.92969 19.561 2.92969C22.6063 2.92969 25.4009 4.71687 26.68 7.48291L27.3308 8.89015L28.6987 8.1604C29.5261 7.71942 30.4234 7.4955 31.3663 7.4955C34.4196 7.4955 36.9118 9.88388 37.0399 12.9322L37.0987 14.3257L38.4933 14.3356C41.0328 14.3539 43.0988 16.4349 43.0988 18.9743C43.0988 21.5328 41.0175 23.6141 38.459 23.6141H11.541C8.98247 23.6141 6.90117 21.5324 6.90117 18.9743V18.9743ZM20.6032 47.0703H2.92969V38.2717H20.6032V47.0703ZM47.0703 47.0703H29.3968V38.2717H47.0703V47.0703Z" fill="#5F2DEE"/>
<path d="M32.33 41.2064H44.1372V44.136H32.33V41.2064Z" fill="#5F2DEE"/>
</g>
<defs>
<clipPath id="clip0_724_226">
<rect width="50" height="50" fill="white"/>
</clipPath>
</defs>
</svg>
