<svg width="50" height="50" viewBox="0 0 50 50" fill="none" xmlns="http://www.w3.org/2000/svg">
<path d="M50 22.5288C50 18.1538 46.7709 14.4958 42.5705 13.8294C42.2085 11.729 41.1896 9.80034 39.629 8.29964C37.7464 6.48956 35.2711 5.49278 32.6584 5.49278C31.5041 5.49278 30.3547 5.69382 29.2717 6.08025C26.9939 2.34566 22.8901 0 18.4566 0C11.4773 0 5.79948 5.67818 5.79948 12.6575C5.79948 13.1779 5.83153 13.6978 5.89485 14.2136C2.40555 15.4255 0 18.7191 0 22.5288C0 27.3857 3.95164 31.3374 8.80852 31.3374H8.97408C8.85239 32.1373 8.78906 32.9559 8.78906 33.7891C8.78906 42.7277 16.0614 50 25 50C33.9386 50 41.2109 42.7277 41.2109 33.7891C41.2109 32.9559 41.1476 32.1373 41.0259 31.3374H41.1915C46.0484 31.3374 50 27.3857 50 22.5288ZM18.6481 35.2539C18.7111 36.8935 18.8786 38.5349 19.141 40.0967C17.4721 40.5228 15.8928 41.1274 14.4806 41.8869C13.0314 40.0085 12.0731 37.7331 11.8 35.2539H18.6481ZM25 20.5208C25.2743 20.6589 26.1906 21.5309 27.0786 24.2447C27.1751 24.5392 27.2659 24.8436 27.3529 25.1537C26.5762 25.2419 25.7889 25.2872 25 25.2872C24.2111 25.2872 23.4238 25.2419 22.6467 25.1537C22.7337 24.8436 22.8245 24.5392 22.921 24.2447C23.8094 21.5309 24.7257 20.6589 25 20.5208ZM25 28.2169C25.9998 28.2169 26.9997 28.1517 27.9854 28.0266C28.2143 29.3976 28.3611 30.8464 28.4203 32.3242H21.5797C21.6389 30.8464 21.7857 29.3976 22.0146 28.0266C23.0003 28.1517 24.0002 28.2169 25 28.2169ZM28.4203 35.2539C28.3611 36.7317 28.2143 38.1805 27.9854 39.5515C26.9997 39.4264 25.9998 39.3612 25 39.3612C24.0002 39.3612 23.0003 39.4264 22.0146 39.5515C21.7857 38.1805 21.6389 36.7317 21.5797 35.2539H28.4203ZM19.7567 42.9604C20.1031 44.257 20.5238 45.4437 21.0129 46.4584C19.3939 45.948 17.9081 45.1347 16.6218 44.0861C17.5957 43.6268 18.6512 43.2491 19.7567 42.9604ZM22.9214 43.3334C22.8249 43.0389 22.7337 42.7345 22.6467 42.424C23.4238 42.3363 24.2111 42.2909 25 42.2909C25.7889 42.2909 26.5762 42.3363 27.3533 42.424C27.2663 42.7345 27.1755 43.0389 27.0786 43.3334C26.1906 46.0472 25.2743 46.9193 25 47.0573C24.7257 46.9193 23.8094 46.0472 22.9214 43.3334ZM30.2433 42.9604C31.3488 43.2491 32.4043 43.6268 33.3782 44.0861C32.0919 45.1347 30.6061 45.948 28.9871 46.4584C29.4762 45.4437 29.8969 44.257 30.2433 42.9604ZM30.859 40.0967C31.1214 38.5349 31.2889 36.8935 31.3519 35.2539H38.2C37.9269 37.7331 36.9686 40.0085 35.5194 41.8869C34.1072 41.1274 32.5279 40.5228 30.859 40.0967ZM31.3519 32.3242C31.2889 30.6847 31.1214 29.0432 30.859 27.4815C32.5279 27.0554 34.1072 26.4507 35.519 25.6912C36.9686 27.5696 37.9269 29.845 38.2 32.3242H31.3519ZM30.2433 24.6178C29.8969 23.3212 29.4762 22.1344 28.9871 21.1197C30.6061 21.6301 32.0919 22.4434 33.3782 23.4921C32.4043 23.9513 31.3488 24.329 30.2433 24.6178ZM19.7567 24.6178C18.6512 24.329 17.5957 23.9513 16.6218 23.4921C17.9081 22.4434 19.3939 21.6301 21.0129 21.1197C20.5238 22.1344 20.1031 23.3212 19.7567 24.6178ZM14.4806 25.6912C15.8928 26.4507 17.4721 27.0554 19.141 27.4815C18.8786 29.0432 18.7111 30.6847 18.6481 32.3242H11.8C12.0731 29.845 13.0314 27.5696 14.4806 25.6912ZM25 17.5781C17.947 17.5781 11.9328 22.1062 9.7084 28.4077H8.80852C5.56717 28.4077 2.92969 25.7706 2.92969 22.5288C2.92969 19.6503 4.98657 17.2134 7.82051 16.7343L9.36852 16.4726L9.0004 14.9467C8.82034 14.1998 8.72917 13.4296 8.72917 12.6575C8.72917 7.2937 13.0928 2.92969 18.4566 2.92969C22.2359 2.92969 25.7034 5.14755 27.2911 8.57964L27.9415 9.98688L29.3098 9.25751C30.3486 8.70323 31.4754 8.42247 32.6588 8.42247C36.4918 8.42247 39.6206 11.4204 39.7816 15.2477L39.8399 16.6412L41.2346 16.6512C44.4523 16.674 47.0703 19.3108 47.0703 22.5288C47.0703 25.7706 44.4332 28.4077 41.1915 28.4077H40.2916C38.0672 22.1062 32.053 17.5781 25 17.5781Z" fill="#5F2DEE"/>
</svg>
