<svg width="50" height="50" viewBox="0 0 50 50" fill="none" xmlns="http://www.w3.org/2000/svg">
<g clip-path="url(#clip0_762_837)">
<path d="M25.0003 11.8038C24.9915 11.8038 24.9827 11.8038 24.974 11.8038C17.6482 11.8179 11.6961 17.7895 11.7061 25.116C11.7106 28.3672 12.9016 31.4953 15.0596 33.9241C16.4996 35.5442 17.2923 37.5931 17.2923 39.6935V50.0042H32.7075V39.735C32.7075 37.6133 33.5055 35.5438 34.9544 33.9077C37.1077 31.4766 38.2937 28.3478 38.2937 25.0977C38.2937 21.542 36.9079 18.2003 34.3909 15.6887C31.8805 13.1828 28.5464 11.8038 25.0003 11.8038ZM20.2167 47.0802V43.166H29.7831V47.0802H20.2167ZM24.977 26.585C24.1694 26.585 23.5126 25.9281 23.5126 25.1206C23.5126 24.313 24.1694 23.6561 24.977 23.6561C25.7846 23.6561 26.4415 24.313 26.4415 25.1206C26.4415 25.9281 25.7846 26.585 24.977 26.585ZM32.7655 31.9687C30.8421 34.14 29.7831 36.8981 29.7831 39.735V40.2416H26.4388V29.258C28.1421 28.6545 29.3654 27.0279 29.3654 25.1206C29.3654 22.7009 27.3967 20.7321 24.9766 20.7321C22.5566 20.7321 20.5882 22.7009 20.5882 25.1206C20.5882 27.0279 21.8116 28.6541 23.5145 29.258V40.2416H20.2167V39.6935C20.2167 36.8763 19.1615 34.1374 17.2454 31.9813C15.5623 30.0877 14.6338 27.6478 14.6304 25.1118C14.6224 19.397 19.2653 14.7389 24.9797 14.7282C27.7564 14.7225 30.3622 15.799 32.3249 17.7582C34.2883 19.7174 35.3694 22.324 35.3694 25.0977C35.3694 27.6329 34.4447 30.0732 32.7655 31.9687Z" fill="#5F2DEE"/>
<path d="M23.5151 0.0976562H26.4395V7.90062H23.5151V0.0976562Z" fill="#5F2DEE"/>
<path d="M13.7461 2.72717L17.6477 9.48453L15.1152 10.9467L11.2139 4.18935L13.7461 2.72717Z" fill="#5F2DEE"/>
<path d="M4.06862 11.3511L10.826 15.2524L9.3638 17.7849L2.60645 13.8833L4.06862 11.3511Z" fill="#5F2DEE"/>
<path d="M0 23.6583H7.80296V26.5827H0V23.6583Z" fill="#5F2DEE"/>
<path d="M4.09108 38.8839L2.62891 36.3517L9.38626 32.4501L10.8484 34.9827L4.09108 38.8839Z" fill="#5F2DEE"/>
<path d="M45.9322 38.8446L39.1748 34.943L40.637 32.4108L47.3943 36.3121L45.9322 38.8446Z" fill="#5F2DEE"/>
<path d="M42.1973 23.6125H50.0002V26.5365H42.1973V23.6125Z" fill="#5F2DEE"/>
<path d="M45.9081 11.3105L47.3699 13.8427L40.6126 17.7444L39.1504 15.2118L45.9081 11.3105Z" fill="#5F2DEE"/>
<path d="M34.8452 10.9241L32.313 9.46233L36.2147 2.70459L38.7469 4.16676L34.8452 10.9241Z" fill="#5F2DEE"/>
</g>
<defs>
<clipPath id="clip0_762_837">
<rect width="50" height="50" fill="white"/>
</clipPath>
</defs>
</svg>
