<svg width="35" height="35" viewBox="0 0 35 35" fill="none" xmlns="http://www.w3.org/2000/svg">
<g clip-path="url(#clip0_825_3199)">
<path d="M17.5002 35C12.6148 35 8.75024 27.3437 8.75024 17.5C8.75024 7.65625 12.6148 0 17.5002 0C22.3857 0 26.2502 7.65625 26.2502 17.5C26.2502 27.3437 22.3857 35 17.5002 35ZM17.5002 1.45833C13.5627 1.45833 10.2086 8.82292 10.2086 17.5C10.2086 26.1771 13.5627 33.5417 17.5002 33.5417C21.4377 33.5417 24.7919 26.1771 24.7919 17.5C24.7919 8.82292 21.4377 1.45833 17.5002 1.45833Z" fill="white"/>
<path d="M26.1044 29.0938C22.3127 29.0938 17.5732 27.6354 13.1252 25.0833C4.59399 20.1979 -0.0726817 12.9792 2.33357 8.75C3.42732 6.92708 5.68774 5.90625 8.82315 5.90625C12.6148 5.90625 17.3544 7.36458 21.8023 9.91667C30.4065 14.8021 35.0732 22.0208 32.6669 26.25C31.5732 28.0729 29.2398 29.0938 26.1044 29.0938ZM8.89607 7.36458C6.27107 7.36458 4.44815 8.09375 3.64607 9.47917C1.6044 12.9063 6.34398 19.4688 13.8544 23.8438C18.0836 26.3229 22.5315 27.7083 26.1044 27.7083C28.7294 27.7083 30.5523 26.9792 31.3544 25.5938C33.3232 22.1667 28.6565 15.6042 21.0732 11.2292C16.9169 8.75 12.469 7.36458 8.89607 7.36458Z" fill="white"/>
<path d="M8.89608 29.0938C5.76066 29.0938 3.42733 28.0729 2.40649 26.25C-0.072673 22.0208 4.594 14.8021 13.1252 9.91667C17.5732 7.36458 22.3128 5.90625 26.1044 5.90625C29.2398 5.90625 31.5732 6.92708 32.594 8.75C35.0732 12.9792 30.3336 20.1979 21.8023 25.0833C17.4273 27.6354 12.6877 29.0938 8.89608 29.0938ZM26.1044 7.36458C22.5315 7.36458 18.0836 8.75 13.8544 11.2292C6.344 15.5313 1.60441 22.0938 3.57316 25.5208C4.37525 26.9063 6.27108 27.6354 8.82316 27.6354C12.3961 27.6354 16.844 26.25 21.0732 23.7708C28.5836 19.3958 33.3232 12.8333 31.3544 9.40625C30.6253 8.09375 28.7294 7.36458 26.1044 7.36458Z" fill="white"/>
<path d="M17.5002 16.6979C15.0211 16.6979 13.2711 15.75 13.2711 14.3646C13.2711 12.9792 15.0211 12.0312 17.5002 12.0312C19.9794 12.0312 21.7294 12.9792 21.7294 14.3646C21.7294 15.75 19.9794 16.6979 17.5002 16.6979ZM17.5002 13.4896C15.6773 13.4896 14.7294 14.1458 14.7294 14.3646C14.7294 14.5833 15.6773 15.2396 17.5002 15.2396C19.3231 15.2396 20.2711 14.5833 20.2711 14.3646C20.2711 14.1458 19.3231 13.4896 17.5002 13.4896Z" fill="white"/>
<path d="M17.5002 19.8333C15.4586 19.8333 13.2711 19.0312 13.2711 17.5V14.3645C13.2711 13.927 13.5627 13.6354 14.0002 13.6354C14.4377 13.6354 14.7294 13.927 14.7294 14.3645C14.7294 14.5833 15.7502 15.2395 17.5002 15.2395C19.2502 15.2395 20.2711 14.5833 20.2711 14.3645C20.2711 14.3645 20.2711 14.3645 20.2711 14.2916C20.2711 13.927 20.6356 13.6354 21.0002 13.6354C21.4377 13.6354 21.7294 13.927 21.7294 14.3645V17.5C21.7294 19.0312 19.5419 19.8333 17.5002 19.8333ZM14.7294 16.1875V17.5C14.7294 17.7187 15.7502 18.375 17.5002 18.375C19.2502 18.375 20.2711 17.7187 20.2711 17.5V16.1875C18.6669 16.8437 16.3336 16.8437 14.7294 16.1875Z" fill="white"/>
<path d="M17.5002 22.9688C15.4586 22.9688 13.2711 22.1667 13.2711 20.6355V17.5C13.2711 17.0625 13.5627 16.7709 14.0002 16.7709C14.4377 16.7709 14.7294 17.0625 14.7294 17.5C14.7294 17.7188 15.7502 18.375 17.5002 18.375C19.2502 18.375 20.2711 17.7188 20.2711 17.5C20.2711 17.5 20.2711 17.5 20.2711 17.4271C20.2711 17.0625 20.6356 16.7709 21.0002 16.7709C21.4377 16.7709 21.7294 17.0625 21.7294 17.5V20.6355C21.7294 22.1667 19.5419 22.9688 17.5002 22.9688ZM14.7294 19.323V20.6355C14.7294 20.8542 15.7502 21.5105 17.5002 21.5105C19.2502 21.5105 20.2711 20.8542 20.2711 20.6355V19.323C18.6669 19.9792 16.3336 19.9792 14.7294 19.323Z" fill="white"/>
</g>
<defs>
<clipPath id="clip0_825_3199">
<rect width="35" height="35" fill="white" transform="translate(0.000244141)"/>
</clipPath>
</defs>
</svg>
