<svg width="35" height="35" viewBox="0 0 35 35" fill="none" xmlns="http://www.w3.org/2000/svg">
<g clip-path="url(#clip0_893_4366)">
<path d="M21.2188 35H13.6354L13.2708 30.4792C12.4688 30.2604 11.8125 29.9687 11.1563 29.6042L7.65625 32.5208L2.26042 27.2708L5.17708 23.7708C4.88542 23.1146 4.59375 22.4583 4.30208 21.6562L-0.21875 21.2917V13.7083L4.375 13.3437C4.59375 12.6875 4.88542 11.9583 5.25 11.2292L2.33333 7.72917L7.72917 2.47917L11.2292 5.39583C11.8854 5.10417 12.5417 4.8125 13.3438 4.52083L13.6354 0H21.2188L21.5833 4.52083C22.3854 4.73958 23.0417 5.03125 23.6979 5.39583L27.1979 2.47917L32.5938 7.72917L29.6771 11.2292C29.9688 11.8854 30.2604 12.5417 30.5521 13.3437L35.0729 13.7083V21.2917L30.5521 21.6562C30.3333 22.4583 30.0417 23.1146 29.6771 23.7708L32.5938 27.2708L27.1979 32.5208L23.6979 29.6042C23.0417 29.8958 22.3854 30.1875 21.5833 30.4792L21.2188 35ZM14.9479 33.5417H19.9063L20.2708 29.3125L20.7083 29.1667C21.8021 28.875 22.6042 28.5104 23.4062 28.0729L23.8438 27.8542L27.125 30.625L30.625 27.125L27.8542 23.9167L28.0729 23.4792C28.5104 22.75 28.875 21.875 29.1667 20.7812L29.3125 20.3437L33.5417 19.9792V15.0208L29.3125 14.6562L29.1667 14.2187C28.875 13.125 28.5104 12.3229 28.0729 11.5208L27.8542 11.0833L30.625 7.875L27.125 4.375L23.8438 7.14583L23.4062 6.92708C22.6771 6.48958 21.8021 6.125 20.7083 5.83333L20.2708 5.6875L19.9063 1.45833H14.9479L14.5833 5.61458L14.1458 5.76042C13.0521 6.05208 12.25 6.41667 11.4479 6.85417L11.0104 7.07292L7.72917 4.375L4.22917 7.875L7 11.0833L6.78125 11.5208C6.19792 12.4687 5.90625 13.3437 5.6875 14.1458L5.61458 14.6562L1.38542 15.0208V19.9792L5.61458 20.3437L5.76042 20.7812C6.05208 21.875 6.41667 22.6771 6.85417 23.4792L7.07292 23.9167L4.30208 27.125L7.80208 30.625L11.0104 27.8542L11.4479 28.0729C12.1771 28.5104 13.0521 28.875 14.1458 29.1667L14.5833 29.3125L14.9479 33.5417Z" fill="white"/>
<path d="M17.5 28.2187C11.5938 28.2187 6.78125 23.4062 6.78125 17.5C6.78125 11.5937 11.5938 6.78125 17.5 6.78125C23.4063 6.78125 28.2188 11.5937 28.2188 17.5C28.2188 23.4062 23.4063 28.2187 17.5 28.2187ZM17.5 8.23958C12.3958 8.23958 8.23958 12.3958 8.23958 17.5C8.23958 22.6042 12.3958 26.7604 17.5 26.7604C22.6042 26.7604 26.7604 22.6042 26.7604 17.5C26.7604 12.3958 22.6042 8.23958 17.5 8.23958Z" fill="white"/>
<path d="M17.5 28.2187C11.5938 28.2187 6.78125 23.4062 6.78125 17.5C6.78125 11.5937 11.5938 6.78125 17.5 6.78125C23.4063 6.78125 28.2188 11.5937 28.2188 17.5C28.2188 23.4062 23.4063 28.2187 17.5 28.2187ZM17.5 8.23958C12.3958 8.23958 8.23958 12.3958 8.23958 17.5C8.23958 22.6042 12.3958 26.7604 17.5 26.7604C22.6042 26.7604 26.7604 22.6042 26.7604 17.5C26.7604 12.3958 22.6042 8.23958 17.5 8.23958Z" fill="white"/>
<path d="M21.948 14.073H24.2813V15.4584H21.948V14.073Z" fill="white"/>
<path d="M21.948 16.771H24.2813V18.1564H21.948V16.771Z" fill="white"/>
<path d="M21.948 19.4688H24.2813V20.8542H21.948V19.4688Z" fill="white"/>
<path d="M10.7188 14.073H13.0521V15.4584H10.7188V14.073Z" fill="white"/>
<path d="M10.7188 16.771H13.0521V18.1564H10.7188V16.771Z" fill="white"/>
<path d="M10.7188 19.4688H13.0521V20.8542H10.7188V19.4688Z" fill="white"/>
<path d="M19.4688 21.948H20.8542V24.2813H19.4688V21.948Z" fill="white"/>
<path d="M16.771 21.948H18.1564V24.2813H16.771V21.948Z" fill="white"/>
<path d="M14.073 21.948H15.4584V24.2813H14.073V21.948Z" fill="white"/>
<path d="M19.4688 10.7188H20.8542V13.0521H19.4688V10.7188Z" fill="white"/>
<path d="M16.771 10.7188H18.1564V13.0521H16.771V10.7188Z" fill="white"/>
<path d="M14.073 10.7188H15.4584V13.0521H14.073V10.7188Z" fill="white"/>
<path d="M22.6772 22.6772H12.323V12.323H22.6042V22.6772H22.6772ZM13.7813 21.2188H21.2917V13.7813H13.7813V21.2188Z" fill="white"/>
<path d="M20.3438 20.3437H14.7292V16.1875L16.2605 14.6562H20.4167V20.3437H20.3438ZM16.1147 18.8854H18.9584V16.0417H16.7709L16.1147 16.7708V18.8854Z" fill="white"/>
</g>
<defs>
<clipPath id="clip0_893_4366">
<rect width="35" height="35" fill="white"/>
</clipPath>
</defs>
</svg>
