<svg width="35" height="35" viewBox="0 0 35 35" fill="none" xmlns="http://www.w3.org/2000/svg">
<path d="M25.1561 9.69784L23.6978 9.552L23.9894 6.34367L27.1977 6.052L27.3436 7.51034L25.3019 7.65617L25.1561 9.69784Z" fill="white"/>
<path d="M25.1338 6.45728L28.4852 9.80867L27.454 10.8399L24.1026 7.48847L25.1338 6.45728Z" fill="white"/>
<path d="M7.80208 28.9478L7.65625 27.4895L9.69792 27.3437L9.84375 25.302L11.3021 25.4478L11.0104 28.6562L7.80208 28.9478Z" fill="white"/>
<path d="M7.49463 24.1033L10.846 27.4547L9.81482 28.4859L6.46343 25.1345L7.49463 24.1033Z" fill="white"/>
<path d="M28.3647 17.4271L27.4897 16.2604L29.9689 14.2188L32.3752 16.2604L31.5002 17.4271L29.9689 16.1146L28.3647 17.4271Z" fill="white"/>
<path d="M29.2397 15.1667H30.6981V19.8334H29.2397V15.1667Z" fill="white"/>
<path d="M5.03125 20.7813L2.625 18.7397L3.5 17.573L5.03125 18.8855L6.63542 17.573L7.51042 18.7397L5.03125 20.7813Z" fill="white"/>
<path d="M4.30225 15.1667H5.76058V19.8334H4.30225V15.1667Z" fill="white"/>
<path d="M18.7394 32.3749L17.5728 31.4999L18.8853 29.9687L17.5728 28.3645L18.7394 27.4895L20.7811 29.9687L18.7394 32.3749Z" fill="white"/>
<path d="M15.1665 29.2395H19.8332V30.6978H15.1665V29.2395Z" fill="white"/>
<path d="M16.2604 7.51042L14.2188 5.03125L16.2604 2.625L17.4271 3.5L16.1146 5.03125L17.4271 6.63542L16.2604 7.51042Z" fill="white"/>
<path d="M15.1665 4.302H19.8332V5.76033H15.1665V4.302Z" fill="white"/>
<path d="M29.3125 35C26.1771 35 23.625 32.4479 23.625 29.3125C23.625 26.1771 26.1771 23.625 29.3125 23.625C32.4479 23.625 35 26.1771 35 29.3125C35 32.4479 32.4479 35 29.3125 35ZM29.3125 25.0833C26.9792 25.0833 25.0833 26.9792 25.0833 29.3125C25.0833 31.6458 26.9792 33.5417 29.3125 33.5417C31.6458 33.5417 33.5417 31.6458 33.5417 29.3125C33.5417 26.9792 31.6458 25.0833 29.3125 25.0833Z" fill="white"/>
<path d="M29.3127 31.9375C28.6564 31.9375 28.0002 31.6458 27.4897 31.2083C26.4689 30.1875 26.4689 28.5833 27.4897 27.5625C28.4377 26.6146 30.1877 26.6146 31.1356 27.5625C32.1564 28.5833 32.1564 30.1875 31.1356 31.2083C30.6252 31.6458 29.9689 31.9375 29.3127 31.9375ZM29.3127 28.2188C29.021 28.2188 28.7293 28.3646 28.5106 28.5833C28.0731 29.0208 28.0731 29.75 28.5106 30.1875C28.9481 30.625 29.6772 30.625 30.1147 30.1875C30.5522 29.75 30.5522 29.0208 30.1147 28.5833C29.896 28.2917 29.6043 28.2188 29.3127 28.2188Z" fill="white"/>
<path d="M17.5 23.1875C14.3646 23.1875 11.8125 20.6354 11.8125 17.5C11.8125 14.3646 14.3646 11.8125 17.5 11.8125C20.6354 11.8125 23.1875 14.3646 23.1875 17.5C23.1875 20.6354 20.6354 23.1875 17.5 23.1875ZM17.5 13.2708C15.1667 13.2708 13.2708 15.1667 13.2708 17.5C13.2708 19.8333 15.1667 21.7292 17.5 21.7292C19.8333 21.7292 21.7292 19.8333 21.7292 17.5C21.7292 15.1667 19.8333 13.2708 17.5 13.2708Z" fill="white"/>
<path d="M5.6875 11.375C2.55208 11.375 0 8.82292 0 5.6875C0 2.55208 2.55208 0 5.6875 0C8.82292 0 11.375 2.55208 11.375 5.6875C11.375 8.82292 8.82292 11.375 5.6875 11.375ZM5.6875 1.45833C3.35417 1.45833 1.45833 3.35417 1.45833 5.6875C1.45833 8.02083 3.35417 9.91667 5.6875 9.91667C8.02083 9.91667 9.91667 8.02083 9.91667 5.6875C9.91667 3.35417 8.02083 1.45833 5.6875 1.45833Z" fill="white"/>
<path d="M17.5002 20.052C16.8439 20.052 16.1877 19.7603 15.6772 19.3228C14.6564 18.302 14.6564 16.6978 15.6772 15.677C16.6252 14.7291 18.3752 14.7291 19.3231 15.677C20.3439 16.6978 20.3439 18.302 19.3231 19.3228C18.8127 19.8332 18.1564 20.052 17.5002 20.052ZM17.5002 16.4062C17.2085 16.4062 16.9168 16.552 16.6981 16.7707C16.2606 17.2082 16.2606 17.9374 16.6981 18.3749C17.1356 18.8124 17.8647 18.8124 18.3022 18.3749C18.7397 17.9374 18.7397 17.2082 18.3022 16.7707C18.0835 16.4791 17.7918 16.4062 17.5002 16.4062Z" fill="white"/>
<path d="M5.68766 8.3125C5.03141 8.3125 4.37516 8.02083 3.86475 7.58333C2.84391 6.5625 2.84391 4.95833 3.86475 3.9375C4.81266 2.98958 6.56266 2.98958 7.51058 3.9375C8.53141 4.95833 8.53141 6.5625 7.51058 7.58333C7.00016 8.02083 6.34391 8.3125 5.68766 8.3125ZM5.68766 4.59375C5.396 4.59375 5.10433 4.66667 4.88558 4.88542C4.44808 5.32292 4.44808 6.05208 4.88558 6.48958C5.32308 6.92708 6.05225 6.92708 6.48975 6.48958C6.92725 6.05208 6.92725 5.32292 6.48975 4.88542C6.271 4.66667 5.97933 4.59375 5.68766 4.59375Z" fill="white"/>
</svg>
