<svg width="35" height="35" viewBox="0 0 35 35" fill="none" xmlns="http://www.w3.org/2000/svg">
<g clip-path="url(#clip0_825_3289)">
<path d="M33.7607 32.5938H3.13566V1.96875H4.59399V31.1354H33.7607V32.5938Z" fill="white"/>
<path d="M5.97941 5.10413L3.86483 2.98954L1.75024 5.10413L0.729408 4.08329L3.86483 0.947876L7.00024 4.08329L5.97941 5.10413Z" fill="white"/>
<path d="M31.6461 35L30.6252 33.9791L32.7398 31.8645L30.6252 29.75L31.6461 28.7291L34.7815 31.8645L31.6461 35Z" fill="white"/>
<path d="M12.8336 26.8334H8.02108V11.0834H12.8336V26.8334ZM9.4065 25.375H11.4482V12.5417H9.4065V25.375Z" fill="white"/>
<path d="M19.6148 26.8333H14.8023V16.0416H19.6148V26.8333ZM16.1877 25.375H18.2294V17.5H16.1877V25.375Z" fill="white"/>
<path d="M26.3961 26.8333H21.5836V7.21875H26.3961V26.8333ZM22.969 25.375H25.0107V8.60417H22.969V25.375Z" fill="white"/>
<path d="M33.1773 26.8334H28.3648V12.6146H33.1773V26.8334ZM29.7502 25.375H31.7919V14.073H29.7502V25.375Z" fill="white"/>
<path d="M30.7711 10.4272L28.3648 8.45842L29.2398 7.29175L30.7711 8.53133L32.2294 7.36467L33.1044 8.3855L30.7711 10.4272Z" fill="white"/>
<path d="M30.0419 4.95837H31.4273V9.47921H30.0419V4.95837Z" fill="white"/>
<path d="M22.4586 3.13542L21.5836 1.96875L23.9898 0L26.3232 2.04167L25.4482 3.0625L23.9898 1.89583L22.4586 3.13542Z" fill="white"/>
<path d="M23.2607 0.947876H24.6461V5.46871H23.2607V0.947876Z" fill="white"/>
<path d="M8.82316 6.05213L7.94816 4.88546L10.3544 2.98962L12.7607 4.88546L11.8857 6.05213L10.3544 4.73963L8.82316 6.05213Z" fill="white"/>
<path d="M9.62524 3.86462H11.0107V8.38546H9.62524V3.86462Z" fill="white"/>
<path d="M17.1357 12.7604L14.8023 10.6458L15.6773 9.625L17.1357 10.8646L18.6669 9.625L19.5419 10.6458L17.1357 12.7604Z" fill="white"/>
<path d="M16.4065 7.21875H17.7919V11.8125H16.4065V7.21875Z" fill="white"/>
</g>
<defs>
<clipPath id="clip0_825_3289">
<rect width="35" height="35" fill="white" transform="translate(0.000244141)"/>
</clipPath>
</defs>
</svg>
