<svg width="50" height="50" viewBox="0 0 50 50" fill="none" xmlns="http://www.w3.org/2000/svg">
<g clip-path="url(#clip0_839_570)">
<path d="M30.8333 43.4375L23.9583 36.4583H13.6458V34.375H24.7917L32.2917 41.9792L30.8333 43.4375Z" fill="#0076EC"/>
<path d="M23.6678 34.7199L25.1407 36.1928L17.5552 43.7783L16.0823 42.3054L23.6678 34.7199Z" fill="#0076EC"/>
<path d="M38.5417 37.6042V35.5209C43.75 35.5209 47.9167 31.3542 47.9167 26.1459C47.9167 20.9375 43.75 16.7709 38.5417 16.7709H36.3542L36.5625 15.5209C36.6667 15.1042 36.6667 14.4792 36.6667 13.9584C36.6667 8.85419 32.5 4.68752 27.3958 4.68752C23.6458 4.68752 20.2083 6.97919 18.75 10.625L18.2292 11.7709L17.1875 11.0417C16.0417 10.3125 14.6875 9.89585 13.4375 9.89585C9.89583 10 6.97917 13.0209 6.97917 16.6667C6.97917 17.5 7.1875 18.5417 7.60417 19.5834L8.02083 20.625L6.97917 20.9375C3.95833 21.9792 2.08333 24.6875 2.08333 28.0209C2.08333 32.1875 5.41667 35.5209 9.58333 35.5209V37.6042C4.27083 37.6042 0 33.3334 0 28.0209C0 24.2709 2.08333 20.9375 5.3125 19.375C5 18.4375 4.89583 17.5 4.89583 16.6667C4.89583 11.875 8.75 7.91669 13.4375 7.81252C14.7917 7.81252 16.1458 8.12502 17.3958 8.75002C19.375 5.00002 23.2292 2.60419 27.3958 2.60419C33.6458 2.60419 38.75 7.70835 38.75 13.9584V14.6875C45 14.7917 50 19.8959 50 26.1459C50 32.5 44.8958 37.6042 38.5417 37.6042Z" fill="#0076EC"/>
<path d="M46.875 21.875C45.2083 18.8542 42.0833 16.875 38.6458 16.875C37.0833 16.875 35.4166 17.2917 34.0625 18.125L33.0208 16.3542C34.6875 15.4167 36.6666 14.8959 38.6458 14.8959C42.9166 14.8959 46.7708 17.1875 48.75 20.9375L46.875 21.875Z" fill="#0076EC"/>
<path d="M7.39581 37.3959C2.18748 36.1459 -0.937519 30.9375 0.312481 25.8334C1.56248 20.7292 6.77081 17.6042 11.875 18.75L11.4583 20.8334C7.29165 19.7917 3.22915 22.2917 2.29165 26.25C1.24998 30.2084 3.85415 34.2709 7.91665 35.3125L7.39581 37.3959Z" fill="#0076EC"/>
<path d="M20.1041 15.3125C19.4791 12.1875 16.7708 10 13.5416 10C10.3125 10 7.60415 12.1875 6.97915 15.3125L4.89581 14.8959C5.72915 10.8334 9.37498 7.91669 13.5416 7.91669C17.7083 7.91669 21.3541 10.8334 22.1875 14.8959L20.1041 15.3125Z" fill="#0076EC"/>
<path d="M24.375 47.1875C17.9167 47.1875 12.6042 41.875 12.6042 35.4167C12.6042 28.9584 17.9167 23.6459 24.375 23.6459C25.2084 23.6459 25.9375 23.75 26.6667 23.8542L27.6042 23.9584V31.9792H35.8334L35.9375 32.9167C36.0417 33.75 36.1459 34.5834 36.1459 35.4167C36.1459 41.875 30.8334 47.1875 24.375 47.1875ZM24.375 25.7292C19.0625 25.7292 14.6875 30.1042 14.6875 35.4167C14.6875 40.7292 19.0625 45.1042 24.375 45.1042C29.6875 45.1042 34.0625 40.7292 34.0625 35.4167C34.0625 35 34.0625 34.4792 33.9584 34.0625H25.5209V25.8334C25.1042 25.7292 24.7917 25.7292 24.375 25.7292Z" fill="#0076EC"/>
<path d="M39.5834 34.0625H25.4167V19.8959H26.4584C33.6459 19.8959 39.5834 25.8334 39.5834 33.0209V34.0625ZM27.5 31.9792H37.5C36.9792 26.7709 32.8125 22.5 27.5 21.9792V31.9792Z" fill="#0076EC"/>
</g>
<defs>
<clipPath id="clip0_839_570">
<rect width="50" height="50" fill="white"/>
</clipPath>
</defs>
</svg>
