<svg width="50" height="50" viewBox="0 0 50 50" fill="none" xmlns="http://www.w3.org/2000/svg">
<path d="M25 20.3125C21.3542 20.3125 17.7083 18.8542 15 16.25L14.2708 15.5208L15 14.7917C17.6042 12.1875 21.1458 10.7292 25 10.7292C28.6458 10.7292 32.2917 12.1875 35 14.7917L35.8333 15.5208L35 16.25C32.2917 18.8542 28.6458 20.3125 25 20.3125ZM17.2917 15.5208C19.4792 17.2917 22.1875 18.2292 25 18.2292C27.7083 18.2292 30.5208 17.2917 32.7083 15.5208C30.5208 13.75 27.8125 12.8125 25 12.8125C22.1875 12.8125 19.375 13.75 17.2917 15.5208Z" fill="#0076EC"/>
<path d="M25 39.4792C21.3542 39.4792 17.7083 38.0209 15 35.4167L14.2708 34.6875L15 33.9584C17.6042 31.3542 21.1458 29.8959 25 29.8959C28.8542 29.8959 32.3959 31.3542 35 33.9584L35.7292 34.6875L35 35.4167C32.3959 38.0209 28.8542 39.4792 25 39.4792ZM17.2917 34.6875C19.4792 36.4584 22.1875 37.3959 25 37.3959C27.9167 37.3959 30.625 36.4584 32.7084 34.6875C30.625 32.9167 27.9167 31.9792 25 31.9792C22.1875 31.9792 19.375 32.9167 17.2917 34.6875Z" fill="#0076EC"/>
<path d="M25 39.4792C17.0833 39.4792 10.625 33.0208 10.625 25.1042C10.625 17.1875 17.0833 10.7292 25 10.7292C32.9167 10.7292 39.375 17.1875 39.375 25.1042C39.375 33.0208 32.9167 39.4792 25 39.4792ZM25 12.8125C18.2292 12.8125 12.7083 18.3334 12.7083 25.1042C12.7083 31.875 18.2292 37.3958 25 37.3958C31.7708 37.3958 37.2917 31.875 37.2917 25.1042C37.2917 18.3334 31.7708 12.8125 25 12.8125Z" fill="#0076EC"/>
<path d="M25 39.4792C21.3542 39.4792 17.7083 38.0208 15 35.4167C12.1875 32.7083 10.625 28.9583 10.625 25.1042C10.625 21.25 12.1875 17.6042 15 14.7917C17.6042 12.1875 21.1458 10.7292 25 10.7292C28.6458 10.7292 32.2917 12.1875 35 14.7917C37.8125 17.5 39.375 21.25 39.375 25.1042C39.375 28.9583 37.8125 32.6042 35 35.4167C32.3958 38.0208 28.8542 39.4792 25 39.4792ZM25 12.8125C21.7708 12.8125 18.6458 14.0625 16.4583 16.25C14.0625 18.6459 12.7083 21.7709 12.7083 25.1042C12.7083 28.4375 14.0625 31.6667 16.4583 33.9583C18.75 36.1458 21.875 37.3958 25 37.3958C28.2292 37.3958 31.3542 36.1458 33.5417 33.9583C35.9375 31.5625 37.2917 28.4375 37.2917 25.1042C37.2917 21.7709 35.9375 18.5417 33.5417 16.25C31.25 14.0625 28.125 12.8125 25 12.8125Z" fill="#0076EC"/>
<path d="M25 39.4792C20.3125 39.4792 16.6667 33.125 16.6667 25.1042C16.6667 17.0834 20.3125 10.7292 25 10.7292C29.6875 10.7292 33.3333 17.0834 33.3333 25.1042C33.3333 33.125 29.6875 39.4792 25 39.4792ZM25 12.8125C21.5625 12.8125 18.75 18.4375 18.75 25.1042C18.75 31.7708 21.5625 37.3958 25 37.3958C28.4375 37.3958 31.25 31.7708 31.25 25.1042C31.25 18.4375 28.4375 12.8125 25 12.8125Z" fill="#0076EC"/>
<path d="M44.6875 11.4583H46.7708V13.5417H44.6875V11.4583Z" fill="#0076EC"/>
<path d="M44.6875 15.625H46.7708V17.7083H44.6875V15.625Z" fill="#0076EC"/>
<path d="M44.6875 19.7916H46.7708V21.875H44.6875V19.7916Z" fill="#0076EC"/>
<path d="M44.6875 23.9583H46.7708V26.0417H44.6875V23.9583Z" fill="#0076EC"/>
<path d="M44.6875 28.125H46.7708V30.2083H44.6875V28.125Z" fill="#0076EC"/>
<path d="M44.6875 32.2916H46.7708V34.375H44.6875V32.2916Z" fill="#0076EC"/>
<path d="M44.6875 36.4583H46.7708V38.5416H44.6875V36.4583Z" fill="#0076EC"/>
<path d="M3.22916 11.4583H5.31249V13.5417H3.22916V11.4583Z" fill="#0076EC"/>
<path d="M3.22916 15.625H5.31249V17.7083H3.22916V15.625Z" fill="#0076EC"/>
<path d="M3.22916 19.7916H5.31249V21.875H3.22916V19.7916Z" fill="#0076EC"/>
<path d="M3.22916 23.9583H5.31249V26.0417H3.22916V23.9583Z" fill="#0076EC"/>
<path d="M3.22916 28.125H5.31249V30.2083H3.22916V28.125Z" fill="#0076EC"/>
<path d="M3.22916 32.2916H5.31249V34.375H3.22916V32.2916Z" fill="#0076EC"/>
<path d="M3.22916 36.4583H5.31249V38.5416H3.22916V36.4583Z" fill="#0076EC"/>
<path d="M36.4584 44.6876H38.5417V46.7709H36.4584V44.6876Z" fill="#0076EC"/>
<path d="M32.2917 44.6876H34.375V46.7709H32.2917V44.6876Z" fill="#0076EC"/>
<path d="M28.125 44.6876H30.2083V46.7709H28.125V44.6876Z" fill="#0076EC"/>
<path d="M23.9583 44.6876H26.0417V46.7709H23.9583V44.6876Z" fill="#0076EC"/>
<path d="M19.7917 44.6876H21.875V46.7709H19.7917V44.6876Z" fill="#0076EC"/>
<path d="M15.625 44.6876H17.7083V46.7709H15.625V44.6876Z" fill="#0076EC"/>
<path d="M11.4583 44.6876H13.5417V46.7709H11.4583V44.6876Z" fill="#0076EC"/>
<path d="M36.4584 3.22919H38.5417V5.31252H36.4584V3.22919Z" fill="#0076EC"/>
<path d="M32.2917 3.22919H34.375V5.31252H32.2917V3.22919Z" fill="#0076EC"/>
<path d="M28.125 3.22919H30.2083V5.31252H28.125V3.22919Z" fill="#0076EC"/>
<path d="M23.9583 3.22919H26.0417V5.31252H23.9583V3.22919Z" fill="#0076EC"/>
<path d="M19.7917 3.22919H21.875V5.31252H19.7917V3.22919Z" fill="#0076EC"/>
<path d="M15.625 3.22919H17.7083V5.31252H15.625V3.22919Z" fill="#0076EC"/>
<path d="M11.4583 3.22919H13.5417V5.31252H11.4583V3.22919Z" fill="#0076EC"/>
<path d="M23.9583 11.7708H26.0417V38.4375H23.9583V11.7708Z" fill="#0076EC"/>
<path d="M11.6667 24.0625H38.3333V26.1458H11.6667V24.0625Z" fill="#0076EC"/>
<path d="M42.5329 6.05939L44.0061 7.53253L39.513 12.0256L38.0399 10.5525L42.5329 6.05939Z" fill="#0076EC"/>
<path d="M10.5602 38.0386L12.0334 39.5117L7.54027 44.0048L6.06714 42.5316L10.5602 38.0386Z" fill="#0076EC"/>
<path d="M39.4431 38.0353L43.9361 42.5284L42.463 44.0015L37.9699 39.5085L39.4431 38.0353Z" fill="#0076EC"/>
<path d="M7.46387 6.06262L11.9569 10.5557L10.4838 12.0288L5.99073 7.53576L7.46387 6.06262Z" fill="#0076EC"/>
<path d="M4.27083 8.54167C1.875 8.54167 0 6.66667 0 4.27083C0 1.875 1.875 0 4.27083 0C6.66667 0 8.54167 1.875 8.54167 4.27083C8.54167 6.66667 6.66667 8.54167 4.27083 8.54167ZM4.27083 2.08333C3.02083 2.08333 2.08333 3.02083 2.08333 4.27083C2.08333 5.52083 3.02083 6.45833 4.27083 6.45833C5.52083 6.45833 6.45833 5.52083 6.45833 4.27083C6.45833 3.02083 5.52083 2.08333 4.27083 2.08333Z" fill="#0076EC"/>
<path d="M4.27083 50C1.875 50 0 48.125 0 45.7291C0 43.3333 1.875 41.4583 4.27083 41.4583C6.66667 41.4583 8.54167 43.3333 8.54167 45.7291C8.54167 48.125 6.66667 50 4.27083 50ZM4.27083 43.5416C3.02083 43.5416 2.08333 44.4791 2.08333 45.7291C2.08333 46.9791 3.02083 47.9166 4.27083 47.9166C5.52083 47.9166 6.45833 46.9791 6.45833 45.7291C6.45833 44.4791 5.52083 43.5416 4.27083 43.5416Z" fill="#0076EC"/>
<path d="M45.7292 8.54167C43.3333 8.54167 41.4583 6.66667 41.4583 4.27083C41.4583 1.875 43.3333 0 45.7292 0C48.125 0 50 1.875 50 4.27083C50 6.66667 48.125 8.54167 45.7292 8.54167ZM45.7292 2.08333C44.4792 2.08333 43.5417 3.02083 43.5417 4.27083C43.5417 5.52083 44.4792 6.45833 45.7292 6.45833C46.9792 6.45833 47.9167 5.52083 47.9167 4.27083C47.9167 3.02083 46.9792 2.08333 45.7292 2.08333Z" fill="#0076EC"/>
<path d="M45.7292 50C43.3333 50 41.4583 48.125 41.4583 45.7291C41.4583 43.3333 43.3333 41.4583 45.7292 41.4583C48.125 41.4583 50 43.3333 50 45.7291C50 48.125 48.125 50 45.7292 50ZM45.7292 43.5416C44.4792 43.5416 43.5417 44.4791 43.5417 45.7291C43.5417 46.9791 44.4792 47.9166 45.7292 47.9166C46.9792 47.9166 47.9167 46.9791 47.9167 45.7291C47.9167 44.4791 46.9792 43.5416 45.7292 43.5416Z" fill="#0076EC"/>
</svg>
