<svg width="50" height="50" viewBox="0 0 50 50" fill="none" xmlns="http://www.w3.org/2000/svg">
<path d="M28.5417 50H21.4583L21.1458 46.1458C18.125 45.625 15.3125 44.375 12.8125 42.7083L9.89583 45.2083L4.89583 40.2083L7.29167 37.1875C5.52083 34.4792 4.27083 31.7708 3.85417 28.8542L0 28.5417V21.4583L3.85417 21.1458C4.375 18.125 5.625 15.3125 7.29167 12.8125L4.79167 9.79167L9.79167 4.79167L12.8125 7.29167C15.4167 5.52083 18.3333 4.375 21.1458 3.85417L21.4583 0H28.4375L28.75 3.85417C31.7708 4.375 34.5833 5.625 37.0833 7.29167L40.1042 4.79167L45.1042 9.79167L42.7083 12.8125C44.4792 15.4167 45.625 18.3333 46.1458 21.1458L50 21.4583V28.5417L46.1458 28.8542C45.625 31.875 44.4792 34.6875 42.7083 37.1875L45.2083 40.1042L40.2083 45.1042L37.1875 42.7083C34.5833 44.4792 31.6667 45.625 28.8542 46.1458L28.5417 50ZM23.3333 47.9167H26.6667L26.9792 44.2708L27.8125 44.1667C30.8333 43.75 33.9583 42.5 36.6667 40.5208L37.2917 40L40 42.2917L42.2917 40L40 37.2917L40.5208 36.6667C42.5 33.9583 43.75 31.0417 44.1667 27.7083L44.2708 26.875L47.9167 26.5625V23.2292L44.2708 22.9167L44.1667 22.0833C43.75 19.0625 42.5 15.9375 40.5208 13.2292L40 12.6042L42.2917 9.89583L40 7.60417L37.1875 9.89583L36.5625 9.375C33.9583 7.5 30.8333 6.14583 27.6042 5.72917L26.7708 5.625L26.5625 2.08333H23.3333L23.0208 5.72917L22.1875 5.83333C19.1667 6.25 16.0417 7.5 13.3333 9.47917L12.7083 10L10 7.70833L7.70833 10L10 12.7083L9.47917 13.3333C7.60417 15.9375 6.35417 19.0625 5.83333 22.2917L5.72917 23.125L2.08333 23.3333V26.6667L5.72917 26.9792L5.83333 27.8125C6.14583 30.8333 7.39583 33.8542 9.47917 36.6667L10 37.2917L7.70833 40L10 42.2917L12.7083 40L13.3333 40.5208C15.9375 42.3958 19.0625 43.75 22.2917 44.1667L23.125 44.2708L23.3333 47.9167Z" fill="#0076EC"/>
<path d="M25 39.6875C16.875 39.6875 10.3125 33.125 10.3125 25C10.3125 16.875 16.875 10.3125 25 10.3125C33.125 10.3125 39.6875 16.875 39.6875 25C39.6875 33.125 33.125 39.6875 25 39.6875ZM25 12.3958C18.0208 12.3958 12.3958 18.0208 12.3958 25C12.3958 31.9792 18.0208 37.6042 25 37.6042C31.9792 37.6042 37.6042 31.9792 37.6042 25C37.6042 18.0208 31.9792 12.3958 25 12.3958Z" fill="#0076EC"/>
<path d="M25 35C24.7917 35 24.5833 35 24.4792 34.8959C24.1667 34.6875 23.9583 34.375 23.9583 33.9584V24.375C23.9583 23.9584 24.1667 23.6459 24.4792 23.4375L32.6042 19.2709C32.9167 19.0625 33.3333 19.1667 33.6458 19.2709C33.9583 19.4792 34.1667 19.7917 34.1667 20.2084V29.7917C34.1667 30.2084 33.9583 30.5209 33.6458 30.7292L25.5208 34.8959C25.3125 35 25.2083 35 25 35ZM26.0417 25V32.2917L32.0833 29.1667V21.875L26.0417 25Z" fill="#0076EC"/>
<path d="M25 35C24.7917 35 24.6875 35 24.4792 34.8959L16.3542 30.7292C16.0417 30.5209 15.8333 30.2084 15.8333 29.7917V20.2084C15.8333 19.8959 16.0417 19.4792 16.3542 19.2709C16.6667 19.0625 17.0833 19.0625 17.3958 19.2709L25.5208 23.4375C25.8333 23.6459 26.0417 23.9584 26.0417 24.375V33.9584C26.0417 34.2709 25.8333 34.6875 25.5208 34.8959C25.4167 35 25.2083 35 25 35ZM17.9167 29.1667L23.9583 32.2917V25L17.9167 21.875V29.1667Z" fill="#0076EC"/>
<path d="M25 25.5208C24.7917 25.5208 24.6875 25.5208 24.4792 25.4167L16.3542 21.1458C16.0417 20.9375 15.8333 20.625 15.8333 20.2083C15.8333 19.7917 16.0417 19.4792 16.3542 19.2709L24.4792 15.1042C24.7917 15 25.1042 15 25.4167 15.1042L33.5417 19.2709C33.8542 19.4792 34.0625 19.7917 34.0625 20.2083C34.0625 20.625 33.8542 20.9375 33.5417 21.1458L25.4167 25.4167C25.3125 25.5208 25.2083 25.5208 25 25.5208ZM19.1667 20.2083L25 23.3333L30.8333 20.2083L25 17.1875L19.1667 20.2083Z" fill="#0076EC"/>
<path d="M28.5417 50H21.4583L21.1458 46.1458C18.125 45.625 15.3125 44.375 12.8125 42.7083L9.89583 45.2083L4.89583 40.2083L7.29167 37.1875C5.52083 34.4792 4.27083 31.7708 3.85417 28.8542L0 28.5417V21.4583L3.85417 21.1458C4.375 18.125 5.625 15.3125 7.29167 12.8125L4.79167 9.79167L9.79167 4.79167L12.8125 7.29167C15.4167 5.52083 18.3333 4.375 21.1458 3.85417L21.4583 0H28.4375L28.75 3.85417C31.7708 4.375 34.5833 5.625 37.0833 7.29167L40.1042 4.79167L45.1042 9.79167L42.7083 12.8125C44.4792 15.4167 45.625 18.3333 46.1458 21.1458L50 21.4583V28.5417L46.1458 28.8542C45.625 31.875 44.4792 34.6875 42.7083 37.1875L45.2083 40.1042L40.2083 45.1042L37.1875 42.7083C34.5833 44.4792 31.6667 45.625 28.8542 46.1458L28.5417 50ZM23.3333 47.9167H26.6667L26.9792 44.2708L27.8125 44.1667C30.8333 43.75 33.9583 42.5 36.6667 40.5208L37.2917 40L40 42.2917L42.2917 40L40 37.2917L40.5208 36.6667C42.5 33.9583 43.75 31.0417 44.1667 27.7083L44.2708 26.875L47.9167 26.5625V23.2292L44.2708 22.9167L44.1667 22.0833C43.75 19.0625 42.5 15.9375 40.5208 13.2292L40 12.6042L42.2917 9.89583L40 7.60417L37.1875 9.89583L36.5625 9.375C33.9583 7.5 30.8333 6.14583 27.6042 5.72917L26.7708 5.625L26.5625 2.08333H23.3333L23.0208 5.72917L22.1875 5.83333C19.1667 6.25 16.0417 7.5 13.3333 9.47917L12.7083 10L10 7.70833L7.70833 10L10 12.7083L9.47917 13.3333C7.60417 15.9375 6.35417 19.0625 5.83333 22.2917L5.72917 23.125L2.08333 23.3333V26.6667L5.72917 26.9792L5.83333 27.8125C6.14583 30.8333 7.39583 33.8542 9.47917 36.6667L10 37.2917L7.70833 40L10 42.2917L12.7083 40L13.3333 40.5208C15.9375 42.3958 19.0625 43.75 22.2917 44.1667L23.125 44.2708L23.3333 47.9167Z" fill="#0076EC"/>
</svg>
