<svg width="35" height="35" viewBox="0 0 35 35" fill="none" xmlns="http://www.w3.org/2000/svg">
<g clip-path="url(#clip0_828_6623)">
<path d="M31.4271 7.65627H24.5V0.729187H25.9583V6.19794H31.4271V7.65627Z" fill="#0076EC"/>
<path d="M32.1562 35H2.84375V0H25.8125L32.1562 6.34375V35ZM4.30208 33.5417H30.6979V6.92708L25.2292 1.45833H4.30208V33.5417Z" fill="#0076EC"/>
<path d="M19.6875 9.625H22.75V11.0833H19.6875V9.625Z" fill="#0076EC"/>
<path d="M16.6979 20.7083H18.1562V25.1562H16.6979V20.7083Z" fill="#0076EC"/>
<path d="M16.6979 12.6146H18.1562V17.0625H16.6979V12.6146Z" fill="#0076EC"/>
<path d="M13.4167 19.6146H8.96875V9.625H15.0938V11.0833H10.4271V18.1562H13.4167V19.6146Z" fill="#0076EC"/>
<path d="M26.0313 28.0729H21.3646V26.6146H24.5729V19.6146H21.3646V18.1562H26.0313V28.0729Z" fill="#0076EC"/>
<path d="M22.0208 21.3646H12.6875V16.3333H22.0208V21.3646ZM14.1458 19.9062H20.5625V17.7917H14.1458V19.9062Z" fill="#0076EC"/>
<path d="M17.4271 30.2604L11.5938 27.3438L17.4271 24.3542L23.2604 27.3438L17.4271 30.2604ZM14.8021 27.3438L17.4271 28.6563L20.0521 27.3438L17.4271 25.9583L14.8021 27.3438Z" fill="#0076EC"/>
<path d="M17.4271 13.4167C15.75 13.4167 14.3646 12.0313 14.3646 10.3542C14.3646 8.6771 15.75 7.29169 17.4271 7.29169C19.1042 7.29169 20.4896 8.6771 20.4896 10.3542C20.4896 12.0313 19.1042 13.4167 17.4271 13.4167ZM17.4271 8.75002C16.5521 8.75002 15.8229 9.47919 15.8229 10.3542C15.8229 11.2292 16.5521 11.9584 17.4271 11.9584C18.3021 11.9584 19.0313 11.2292 19.0313 10.3542C19.0313 9.47919 18.3021 8.75002 17.4271 8.75002Z" fill="#0076EC"/>
<path d="M23.8438 9.625H25.3021V11.0833H23.8438V9.625Z" fill="#0076EC"/>
</g>
<defs>
<clipPath id="clip0_828_6623">
<rect width="35" height="35" fill="white"/>
</clipPath>
</defs>
</svg>
