<svg width="35" height="35" viewBox="0 0 35 35" fill="none" xmlns="http://www.w3.org/2000/svg">
<g clip-path="url(#clip0_828_6681)">
<path d="M26.9063 35H25.4479V29.3854H27.7813C28.875 29.3854 29.8229 28.4375 29.8229 27.2708V20.4896H33.0313L29.4583 14.1458V13.125C29.4583 6.70833 24.3542 1.45833 18.1563 1.45833C15.1667 1.45833 12.1771 2.69792 10.0625 4.8125C7.875 7 6.70833 9.84375 6.70833 12.8333C6.70833 14.3646 6.85417 15.75 7.21875 16.9167L9.69792 27.125C10.1354 28.7292 10.3542 30.5521 10.3542 32.3021V35H8.89583V32.375C8.89583 30.6979 8.67708 29.0208 8.23958 27.5625L5.76042 17.3542C5.39583 16.0417 5.25 14.5104 5.25 12.9062C5.25 9.47917 6.5625 6.27083 9.04167 3.86458C11.4479 1.38542 14.8021 0 18.1563 0C25.1563 0 30.9167 5.90625 30.9167 13.125V13.7083L35.5104 21.9479H31.2813V27.2708C31.2813 29.2396 29.6771 30.8437 27.7813 30.8437H26.9063V35Z" fill="#0076EC"/>
<path d="M26.9063 35H25.4479V29.3125H27.7813C28.9479 29.3125 29.8229 28.3646 29.8229 27.1979V20.4167H33.0313L29.4584 14.0729V13.125C29.4584 7.87501 25.8854 3.13542 20.8542 1.82292L21.2188 0.4375C26.8334 1.89583 30.8438 7.29167 30.8438 13.1979V13.7083L35.5105 21.875H31.2813V27.1979C31.2813 29.1667 29.75 30.7709 27.7813 30.7709H26.9063V35Z" fill="#0076EC"/>
<path d="M26.1771 30.7708H22.0208C20.6354 30.7708 19.6146 29.75 19.6146 28.3646H21.0729C21.0729 28.9479 21.4375 29.3125 22.0208 29.3125H26.1771V30.7708Z" fill="#0076EC"/>
<path d="M3.64584 12.7604H18.6667V14.2187H3.64584V12.7604Z" fill="#0076EC"/>
<path d="M2.1875 15.6771C0.947917 15.6771 0 14.7291 0 13.4896C0 12.25 0.947917 11.3021 2.1875 11.3021C3.42708 11.3021 4.375 12.25 4.375 13.4896C4.375 14.7291 3.42708 15.6771 2.1875 15.6771ZM2.1875 12.7604C1.75 12.7604 1.45833 13.0521 1.45833 13.4896C1.45833 13.9271 1.75 14.2187 2.1875 14.2187C2.625 14.2187 2.91667 13.9271 2.91667 13.4896C2.91667 13.0521 2.625 12.7604 2.1875 12.7604Z" fill="#0076EC"/>
<path d="M7.8021 21.6562H3.64584V20.1979H7.3646L10.2084 18.0833H18.6667V19.5416H10.6459L7.8021 21.6562Z" fill="#0076EC"/>
<path d="M2.1875 23.1146C0.947917 23.1146 0 22.1666 0 20.9271C0 19.6875 0.947917 18.7396 2.1875 18.7396C3.42708 18.7396 4.375 19.6875 4.375 20.9271C4.375 22.1666 3.42708 23.1146 2.1875 23.1146ZM2.1875 20.1979C1.75 20.1979 1.45833 20.4896 1.45833 20.9271C1.45833 21.3646 1.75 21.6562 2.1875 21.6562C2.625 21.6562 2.91667 21.3646 2.91667 20.9271C2.91667 20.4896 2.625 20.1979 2.1875 20.1979Z" fill="#0076EC"/>
<path d="M18.6667 8.96871H10.2084L7.3646 6.78121H3.64584V5.32288H7.8021L10.6459 7.51038H18.6667V8.96871Z" fill="#0076EC"/>
<path d="M2.1875 8.23957C0.947917 8.23957 0 7.29165 0 6.05206C0 4.81248 0.947917 3.86456 2.1875 3.86456C3.42708 3.86456 4.375 4.81248 4.375 6.05206C4.375 7.29165 3.42708 8.23957 2.1875 8.23957ZM2.1875 5.3229C1.75 5.3229 1.45833 5.61456 1.45833 6.05206C1.45833 6.48957 1.75 6.78123 2.1875 6.78123C2.625 6.78123 2.91667 6.48957 2.91667 6.05206C2.91667 5.61456 2.625 5.3229 2.1875 5.3229Z" fill="#0076EC"/>
<path d="M20.125 10.5C18.8854 10.5 17.8646 9.47919 17.8646 8.2396C17.8646 7.00002 18.8854 5.97919 20.125 5.97919C21.3646 5.97919 22.3854 7.00002 22.3854 8.2396C22.3854 9.47919 21.3646 10.5 20.125 10.5ZM20.125 7.43752C19.6875 7.43752 19.3229 7.8021 19.3229 8.2396C19.3229 8.6771 19.6875 9.04169 20.125 9.04169C20.5625 9.04169 20.9271 8.6771 20.9271 8.2396C20.9271 7.8021 20.5625 7.43752 20.125 7.43752Z" fill="#0076EC"/>
<path d="M20.125 15.75C18.8854 15.75 17.8646 14.7292 17.8646 13.4896C17.8646 12.25 18.8854 11.2292 20.125 11.2292C21.3646 11.2292 22.3854 12.25 22.3854 13.4896C22.3854 14.7292 21.3646 15.75 20.125 15.75ZM20.125 12.6875C19.6875 12.6875 19.3229 13.0521 19.3229 13.4896C19.3229 13.9271 19.6875 14.2917 20.125 14.2917C20.5625 14.2917 20.9271 13.9271 20.9271 13.4896C20.9271 13.0521 20.5625 12.6875 20.125 12.6875Z" fill="#0076EC"/>
<path d="M20.125 21.0729C18.8854 21.0729 17.8646 20.0521 17.8646 18.8125C17.8646 17.5729 18.8854 16.5521 20.125 16.5521C21.3646 16.5521 22.3854 17.5729 22.3854 18.8125C22.3854 20.0521 21.3646 21.0729 20.125 21.0729ZM20.125 18.0104C19.6875 18.0104 19.3229 18.375 19.3229 18.8125C19.3229 19.25 19.6875 19.6146 20.125 19.6146C20.5625 19.6146 20.9271 19.25 20.9271 18.8125C20.9271 18.375 20.5625 18.0104 20.125 18.0104Z" fill="#0076EC"/>
</g>
<defs>
<clipPath id="clip0_828_6681">
<rect width="35" height="35" fill="white"/>
</clipPath>
</defs>
</svg>
