<svg width="35" height="35" viewBox="0 0 35 35" fill="none" xmlns="http://www.w3.org/2000/svg">
<g clip-path="url(#clip0_828_6604)">
<path d="M14.2188 35.1458V27.3437L7.80212 21.875H27.2709L20.8542 27.3437V32.375L14.2188 35.1458ZM11.7396 23.3333L15.6771 26.6146V32.8854L19.3229 31.3542V26.6146L23.2604 23.3333H11.7396Z" fill="#0076EC"/>
<path d="M22.6771 13.9271H21.2188V9.77085H27.6354V6.63544H29.0937V11.2292H22.6771V13.9271Z" fill="#0076EC"/>
<path d="M13.7812 13.9271H12.3229V11.2292H5.90625V6.63544H7.36458V9.77085H13.7812V13.9271Z" fill="#0076EC"/>
<path d="M16.7709 6.63544H18.2292V13.9271H16.7709V6.63544Z" fill="#0076EC"/>
<path d="M14.2188 35.1459V27.3438L5.90625 20.2709V15.3854H29.0938V20.2709L20.7813 27.3438V32.375L14.2188 35.1459ZM7.36458 19.5417L15.6771 26.6146V32.8854L19.3229 31.3542V26.6146L27.6354 19.5417V16.8438H7.36458V19.5417Z" fill="#0076EC"/>
<path d="M28.3646 7.4375C26.323 7.4375 24.6459 5.76042 24.6459 3.71875C24.6459 1.67708 26.323 0 28.3646 0C30.4063 0 32.0834 1.67708 32.0834 3.71875C32.0834 5.76042 30.4063 7.4375 28.3646 7.4375ZM28.3646 1.45833C27.125 1.45833 26.1042 2.47917 26.1042 3.71875C26.1042 4.95833 27.125 5.97917 28.3646 5.97917C29.6042 5.97917 30.625 4.95833 30.625 3.71875C30.625 2.47917 29.6042 1.45833 28.3646 1.45833V1.45833Z" fill="#0076EC"/>
<path d="M17.5 7.4375C15.4583 7.4375 13.7812 5.76042 13.7812 3.71875C13.7812 1.67708 15.4583 0 17.5 0C19.5417 0 21.2188 1.67708 21.2188 3.71875C21.2188 5.76042 19.5417 7.4375 17.5 7.4375ZM17.5 1.45833C16.2604 1.45833 15.2396 2.47917 15.2396 3.71875C15.2396 4.95833 16.2604 5.97917 17.5 5.97917C18.7396 5.97917 19.7604 4.95833 19.7604 3.71875C19.7604 2.47917 18.7396 1.45833 17.5 1.45833V1.45833Z" fill="#0076EC"/>
<path d="M6.63544 7.4375C4.59377 7.4375 2.91669 5.76042 2.91669 3.71875C2.91669 1.67708 4.59377 0 6.63544 0C8.67711 0 10.3542 1.67708 10.3542 3.71875C10.3542 5.76042 8.67711 7.4375 6.63544 7.4375ZM6.63544 1.45833C5.39586 1.45833 4.37502 2.47917 4.37502 3.71875C4.37502 4.95833 5.39586 5.97917 6.63544 5.97917C7.87502 5.97917 8.89586 4.95833 8.89586 3.71875C8.89586 2.47917 7.87502 1.45833 6.63544 1.45833V1.45833Z" fill="#0076EC"/>
</g>
<defs>
<clipPath id="clip0_828_6604">
<rect width="35" height="35" fill="white"/>
</clipPath>
</defs>
</svg>
