<svg width="35" height="35" viewBox="0 0 35 35" fill="none" xmlns="http://www.w3.org/2000/svg">
<path d="M14 0.947937H15.4583V17.5H14V0.947937Z" fill="#0076EC"/>
<path d="M11.1562 1.67712H12.6146V17.5H11.1562V1.67712Z" fill="#0076EC"/>
<path d="M8.38541 2.98962H9.84375V17.5H8.38541V2.98962Z" fill="#0076EC"/>
<path d="M5.61458 5.03125H7.07291V17.5H5.61458V5.03125Z" fill="#0076EC"/>
<path d="M2.77083 8.23962H4.22917V17.5H2.77083V8.23962Z" fill="#0076EC"/>
<path d="M17.5729 14.0729H34.125V15.5313H17.5729V14.0729Z" fill="#0076EC"/>
<path d="M17.5729 11.3021H33.3959V12.7604H17.5729V11.3021Z" fill="#0076EC"/>
<path d="M17.5729 8.53125H32.1563V9.98957H17.5729V8.53125Z" fill="#0076EC"/>
<path d="M17.5729 5.6875H30.1146V7.14583H17.5729V5.6875Z" fill="#0076EC"/>
<path d="M17.5729 2.91669H26.9063V4.37502H17.5729V2.91669Z" fill="#0076EC"/>
<path d="M16.7708 0.729187H18.2292V34.2709H16.7708V0.729187Z" fill="#0076EC"/>
<path d="M0.729168 16.7708H34.2708V18.2292H0.729168V16.7708Z" fill="#0076EC"/>
<path d="M17.5 35C7.875 35 0 27.125 0 17.5C0 7.875 7.875 0 17.5 0C27.125 0 35 7.875 35 17.5C35 27.125 27.125 35 17.5 35ZM17.5 1.45833C8.67708 1.45833 1.45833 8.67708 1.45833 17.5C1.45833 26.3229 8.67708 33.5417 17.5 33.5417C26.3229 33.5417 33.5417 26.3229 33.5417 17.5C33.5417 8.67708 26.3229 1.45833 17.5 1.45833Z" fill="#0076EC"/>
<path d="M35 35H16.7708V16.7708H35V35ZM18.2292 33.5417H33.5417V18.2291H18.2292V33.5417Z" fill="#0076EC"/>
<path d="M33.7604 34.7813L17.5 18.5209L2.04167 33.9792L1.02083 32.9584L17.5 16.4792L34.7813 33.7605L33.7604 34.7813Z" fill="#0076EC"/>
</svg>
