<svg width="50" height="50" viewBox="0 0 50 50" fill="none" xmlns="http://www.w3.org/2000/svg">
<g opacity="0.3" clip-path="url(#clip0_839_318)">
<path d="M28.0209 50H22.0834L21.875 46.875C21.5625 46.7708 21.3542 46.6667 21.1459 46.5625L18.75 48.6458L14.5834 44.4792L16.6667 42.0833C16.5625 41.875 16.4584 41.5625 16.3542 41.3542L13.2292 41.1458V35.2083L16.25 35C16.3542 34.6875 16.4584 34.4792 16.5625 34.2708L14.4792 31.875L18.6459 27.7083L20.9375 29.7917C21.1459 29.6875 21.4584 29.5833 21.6667 29.4792L21.875 26.3542H27.8125L28.0209 29.375C28.3334 29.4792 28.5417 29.5833 28.75 29.6875L31.1459 27.6042L35.4167 31.7708L33.3334 34.1667C33.4375 34.375 33.5417 34.6875 33.6459 34.8958L36.7709 35.1042V41.0417L33.75 41.25C33.6459 41.5625 33.5417 41.7708 33.4375 42.0833L35.5209 44.5833L31.3542 48.75L28.9584 46.6667C28.75 46.7708 28.4375 46.875 28.2292 46.9792L28.0209 50ZM23.9584 47.9167H26.1459L26.3542 45.4167L26.9792 45.2083C27.6042 45 28.125 44.7917 28.75 44.5833L29.375 44.2708L31.3542 45.9375L32.8125 44.4792L31.1459 42.3958L31.5625 41.5625C31.7709 41.1458 31.9792 40.7292 32.0834 40.3125L32.1875 39.4792L34.8959 39.2708V37.0833L32.2917 36.7708L32.0834 36.1458C31.875 35.5208 31.6667 35 31.4584 34.375L31.1459 33.75L32.8125 31.7708L31.25 30.3125L29.1667 32.0833L28.3334 31.6667C27.9167 31.4583 27.5 31.25 27.0834 31.1458L26.25 31.0417L26.0417 28.3333H23.8542L23.6459 30.8333L23.0209 31.0417C22.3959 31.25 21.875 31.4583 21.25 31.6667L20.625 31.9792L18.75 30.3125L17.2917 31.7708L18.9584 33.75L18.5417 34.5833C18.3334 35 18.125 35.4167 18.0209 35.8333L17.9167 36.6667L15.2084 36.875V39.0625L17.7084 39.2708L17.9167 39.8958C18.125 40.5208 18.3334 41.0417 18.5417 41.6667L18.8542 42.2917L17.1875 44.2708L18.6459 45.7292L20.625 43.9583L21.25 44.375C21.6667 44.5833 22.1875 44.8958 22.7084 45L23.5417 45.1042L23.9584 47.9167Z" fill="#0076EC"/>
<path d="M25 42.6042C22.5 42.6042 20.5208 40.625 20.5208 38.125C20.5208 35.625 22.5 33.6458 25 33.6458C27.5 33.6458 29.4792 35.625 29.4792 38.125C29.4792 40.625 27.5 42.6042 25 42.6042ZM25 35.7292C23.6458 35.7292 22.6042 36.875 22.6042 38.125C22.6042 39.4792 23.75 40.5208 25 40.5208C26.25 40.5208 27.3958 39.375 27.3958 38.125C27.3958 36.7708 26.3542 35.7292 25 35.7292Z" fill="#0076EC"/>
<path d="M25 42.6042C22.5 42.6042 20.5208 40.625 20.5208 38.125C20.5208 35.625 22.5 33.6458 25 33.6458C27.5 33.6458 29.4792 35.625 29.4792 38.125C29.4792 40.625 27.5 42.6042 25 42.6042ZM25 35.7292C23.6458 35.7292 22.6042 36.7708 22.6042 38.125C22.6042 39.4792 23.6458 40.5208 25 40.5208C26.3542 40.5208 27.3958 39.4792 27.3958 38.125C27.3958 36.7708 26.3542 35.7292 25 35.7292Z" fill="#0076EC"/>
<path d="M36.6667 26.3542L35.2083 24.8958L43.4375 16.6667V8.95834H45.5208V17.5L36.6667 26.3542Z" fill="#0076EC"/>
<path d="M41.5625 26.6667H34.8958V19.8958H36.9792V24.5833H41.5625V26.6667Z" fill="#0076EC"/>
<path d="M44.4792 10C41.7709 10 39.4792 7.8125 39.4792 5C39.4792 2.1875 41.7709 0 44.4792 0C47.1875 0 49.4792 2.1875 49.4792 5C49.4792 7.8125 47.1875 10 44.4792 10ZM44.4792 2.08333C42.8125 2.08333 41.5625 3.4375 41.5625 5C41.5625 6.66667 42.9167 7.91667 44.4792 7.91667C46.0417 7.91667 47.3958 6.5625 47.3958 5C47.3958 3.33333 46.1458 2.08333 44.4792 2.08333Z" fill="#0076EC"/>
<path d="M25 24.2708L20.2083 19.4791L21.6667 18.0208L25 21.3541L28.3333 18.0208L29.7917 19.4791L25 24.2708Z" fill="#0076EC"/>
<path d="M13.3334 26.3542L4.47919 17.5V8.95834H6.56252V16.6667L14.7917 24.8958L13.3334 26.3542Z" fill="#0076EC"/>
<path d="M15.1042 26.6667H8.4375V24.5833H13.0208V19.8958H15.1042V26.6667Z" fill="#0076EC"/>
<path d="M5.52084 10C2.81251 10 0.520844 7.8125 0.520844 5C0.520844 2.1875 2.81251 0 5.52084 0C8.22918 0 10.5208 2.1875 10.5208 5C10.5208 7.8125 8.22918 10 5.52084 10ZM5.52084 2.08333C3.85418 2.08333 2.60418 3.33333 2.60418 5C2.60418 6.66667 3.95834 7.91667 5.52084 7.91667C7.18751 7.91667 8.43751 6.5625 8.43751 5C8.43751 3.33333 7.18751 2.08333 5.52084 2.08333Z" fill="#0076EC"/>
<path d="M23.9583 8.95834H26.0417V22.8125H23.9583V8.95834Z" fill="#0076EC"/>
<path d="M25 10C22.2917 10 20 7.8125 20 5C20 2.1875 22.2917 0 25 0C27.7083 0 30 2.1875 30 5C30 7.8125 27.7083 10 25 10ZM25 2.08333C23.3333 2.08333 22.0833 3.4375 22.0833 5C22.0833 6.66667 23.4375 7.91667 25 7.91667C26.6667 7.91667 27.9167 6.5625 27.9167 5C27.9167 3.33333 26.6667 2.08333 25 2.08333Z" fill="#0076EC"/>
</g>
<defs>
<clipPath id="clip0_839_318">
<rect width="50" height="50" fill="white"/>
</clipPath>
</defs>
</svg>
