<svg width="50" height="50" viewBox="0 0 50 50" fill="none" xmlns="http://www.w3.org/2000/svg">
<g opacity="0.3" clip-path="url(#clip0_839_385)">
<path d="M44.2708 35.4167H5.72916V8.75H44.375V35.4167H44.2708ZM7.60416 33.5417H42.2917V10.625H7.60416V33.5417Z" fill="#0076EC"/>
<path d="M46.9792 41.25H3.02083L0 33.4375H50.3125L46.9792 41.25ZM4.27083 39.375H45.625L47.1875 35.5208H2.8125L4.27083 39.375Z" fill="#0076EC"/>
<path d="M21.9792 28.5416H20V20C20 19.1667 19.375 18.5417 18.5417 18.5417C17.7083 18.5417 17.0833 19.1667 17.0833 20V28.5416H15.1042V20C15.1042 18.125 16.5625 16.6667 18.4375 16.6667C20.3125 16.6667 21.7708 18.125 21.7708 20V28.5416H21.9792Z" fill="#0076EC"/>
<path d="M27.1875 23.5417H24.0625V16.6667H27.1875C29.0625 16.6667 30.625 18.2292 30.625 20.1042C30.625 22.0833 29.1667 23.5417 27.1875 23.5417ZM25.9375 21.6667H27.1875C28.0208 21.6667 28.75 21.0417 28.75 20.1042C28.75 19.2708 28.0208 18.5417 27.1875 18.5417H25.9375V21.6667Z" fill="#0076EC"/>
<path d="M32.8125 16.7708H34.7917V28.5416H32.8125V16.7708Z" fill="#0076EC"/>
<path d="M24.0625 22.6042H26.0417V28.5417H24.0625V22.6042Z" fill="#0076EC"/>
<path d="M16.25 22.9167H21.0417V24.8958H16.25V22.9167Z" fill="#0076EC"/>
</g>
<defs>
<clipPath id="clip0_839_385">
<rect width="50" height="50" fill="white"/>
</clipPath>
</defs>
</svg>
