<svg width="35" height="35" viewBox="0 0 35 35" fill="none" xmlns="http://www.w3.org/2000/svg">
<g clip-path="url(#clip0_825_3213)">
<path d="M19.6148 25.9583H15.3127L15.1669 23.7708C15.0211 23.6979 14.8023 23.625 14.6565 23.5521L12.9794 25.0104L9.98983 22.0208L11.4482 20.3437C11.3752 20.1979 11.3023 19.9792 11.2294 19.8333L8.96899 19.6875V15.3125L11.1565 15.2396C11.2294 15.0937 11.3023 14.875 11.3752 14.7292L9.91691 13.0521L12.9065 10.0625L14.5836 11.4479C14.7294 11.375 14.9482 11.3021 15.1669 11.2292L15.3127 8.96875H19.6148L19.7607 11.1562C19.9065 11.2292 20.1252 11.3021 20.2711 11.375L21.9482 9.91667L24.9377 12.9062L23.4794 14.5833C23.5523 14.7292 23.6252 14.9479 23.6982 15.0937L25.9586 15.2396V19.5417L23.7711 19.6875C23.6981 19.8333 23.6252 20.0521 23.5523 20.1979L25.0106 21.8021L22.0211 24.7917L20.344 23.4062C20.1252 23.4792 19.9794 23.5521 19.8336 23.625L19.6148 25.9583ZM16.6982 24.5H18.2294L18.3752 22.6771L18.8127 22.5312C19.2502 22.3854 19.6148 22.2396 19.9794 22.0208L20.4169 21.7292L21.8752 22.9687L22.969 21.875L21.8023 20.5625L22.0211 20.125C22.2398 19.7604 22.3857 19.3229 22.4586 19.0312L22.5315 18.4479L24.5002 18.3021V16.7708L22.6773 16.625L22.5315 16.1875C22.3857 15.75 22.2398 15.3854 22.094 14.9479L21.8752 14.5104L23.0419 13.125L21.8752 12.0312L20.4898 13.1979L20.0523 12.9792C19.6148 12.7604 19.2502 12.5417 18.8127 12.4687L18.3752 12.3229L18.2294 10.5729H16.6982L16.5523 12.3958L15.969 12.6146C15.6044 12.7604 15.2398 12.8333 15.0211 13.0521L14.5836 13.3437L13.1252 12.1042L12.0315 13.1979L13.1982 14.5833L12.9794 15.0208C12.7607 15.4583 12.6148 15.8229 12.5419 16.1146L12.469 16.6979L10.5002 16.7708V18.3021L12.3232 18.4479L12.469 18.8854C12.6148 19.3229 12.7607 19.6875 12.9065 20.125L13.1252 20.5625L12.0315 21.875L13.1252 22.9687L14.5107 21.8021L14.9482 22.0208C15.3127 22.2396 15.7502 22.3854 16.0419 22.4583L16.6252 22.5312L16.6982 24.5Z" fill="white"/>
<path d="M17.5002 20.7083C15.6773 20.7083 14.2919 19.3229 14.2919 17.5C14.2919 15.677 15.6773 14.2916 17.5002 14.2916C19.3232 14.2916 20.7086 15.677 20.7086 17.5C20.7086 19.3229 19.3232 20.7083 17.5002 20.7083ZM17.5002 15.75C16.5523 15.75 15.7502 16.552 15.7502 17.5C15.7502 18.4479 16.5523 19.25 17.5002 19.25C18.4482 19.25 19.2502 18.4479 19.2502 17.5C19.2502 16.552 18.4482 15.75 17.5002 15.75Z" fill="white"/>
<path d="M17.5002 20.7083C15.7502 20.7083 14.2919 19.25 14.2919 17.5C14.2919 15.75 15.7502 14.2916 17.5002 14.2916C19.2502 14.2916 20.7086 15.75 20.7086 17.5C20.7086 19.25 19.2502 20.7083 17.5002 20.7083ZM17.5002 15.75C16.5523 15.75 15.7502 16.552 15.7502 17.5C15.7502 18.4479 16.5523 19.25 17.5002 19.25C18.4482 19.25 19.2502 18.4479 19.2502 17.5C19.2502 16.552 18.4482 15.75 17.5002 15.75Z" fill="white"/>
<path d="M27.344 8.67709H23.6252V7.21875H26.7607L30.0419 3.9375L31.0628 4.95833L27.344 8.67709Z" fill="white"/>
<path d="M32.0836 5.83333C30.4794 5.83333 29.1669 4.52083 29.1669 2.91667C29.1669 1.3125 30.4794 0 32.0836 0C33.6878 0 35.0003 1.3125 35.0003 2.91667C35.0003 4.52083 33.6878 5.83333 32.0836 5.83333ZM32.0836 1.45833C31.2815 1.45833 30.6253 2.11458 30.6253 2.91667C30.6253 3.71875 31.2815 4.375 32.0836 4.375C32.8857 4.375 33.5419 3.71875 33.5419 2.91667C33.5419 2.11458 32.8857 1.45833 32.0836 1.45833Z" fill="white"/>
<path d="M30.0419 31.0625L26.7607 27.7812H23.6252V26.3229H27.344L31.0628 30.0416L30.0419 31.0625Z" fill="white"/>
<path d="M32.0836 35C30.4794 35 29.1669 33.6875 29.1669 32.0833C29.1669 30.4791 30.4794 29.1666 32.0836 29.1666C33.6878 29.1666 35.0003 30.4791 35.0003 32.0833C35.0003 33.6875 33.6878 35 32.0836 35ZM32.0836 30.625C31.2815 30.625 30.6253 31.2812 30.6253 32.0833C30.6253 32.8854 31.2815 33.5416 32.0836 33.5416C32.8857 33.5416 33.5419 32.8854 33.5419 32.0833C33.5419 31.2812 32.8857 30.625 32.0836 30.625Z" fill="white"/>
<path d="M27.1982 16.7709H29.8961V18.2292H27.1982V16.7709Z" fill="white"/>
<path d="M32.0836 20.4167C30.4794 20.4167 29.1669 19.1042 29.1669 17.5C29.1669 15.8959 30.4794 14.5834 32.0836 14.5834C33.6878 14.5834 35.0003 15.8959 35.0003 17.5C35.0003 19.1042 33.6878 20.4167 32.0836 20.4167ZM32.0836 16.0417C31.2815 16.0417 30.6253 16.698 30.6253 17.5C30.6253 18.3021 31.2815 18.9584 32.0836 18.9584C32.8857 18.9584 33.5419 18.3021 33.5419 17.5C33.5419 16.698 32.8857 16.0417 32.0836 16.0417Z" fill="white"/>
<path d="M32.0836 20.4167C30.4794 20.4167 29.1669 19.1042 29.1669 17.5C29.1669 15.8959 30.4794 14.5834 32.0836 14.5834C33.6878 14.5834 35.0003 15.8959 35.0003 17.5C35.0003 19.1042 33.6878 20.4167 32.0836 20.4167ZM32.0836 16.0417C31.2815 16.0417 30.6253 16.698 30.6253 17.5C30.6253 18.3021 31.2815 18.9584 32.0836 18.9584C32.8857 18.9584 33.5419 18.3021 33.5419 17.5C33.5419 16.698 32.8857 16.0417 32.0836 16.0417Z" fill="white"/>
<path d="M4.95858 31.0625L3.93774 30.0416L7.65649 26.3229H11.3752V27.7812H8.23983L4.95858 31.0625Z" fill="white"/>
<path d="M2.91691 35C1.31274 35 0.000244141 33.6875 0.000244141 32.0833C0.000244141 30.4791 1.31274 29.1666 2.91691 29.1666C4.52108 29.1666 5.83358 30.4791 5.83358 32.0833C5.83358 33.6875 4.52108 35 2.91691 35ZM2.91691 30.625C2.11483 30.625 1.45858 31.2812 1.45858 32.0833C1.45858 32.8854 2.11483 33.5416 2.91691 33.5416C3.71899 33.5416 4.37524 32.8854 4.37524 32.0833C4.37524 31.2812 3.71899 30.625 2.91691 30.625Z" fill="white"/>
<path d="M11.3752 8.67709H7.65649L3.93774 4.95833L4.95858 3.9375L8.23983 7.21875H11.3752V8.67709Z" fill="white"/>
<path d="M2.91691 5.83333C1.31274 5.83333 0.000244141 4.52083 0.000244141 2.91667C0.000244141 1.3125 1.31274 0 2.91691 0C4.52108 0 5.83358 1.3125 5.83358 2.91667C5.83358 4.52083 4.52108 5.83333 2.91691 5.83333ZM2.91691 1.45833C2.11483 1.45833 1.45858 2.11458 1.45858 2.91667C1.45858 3.71875 2.11483 4.375 2.91691 4.375C3.71899 4.375 4.37524 3.71875 4.37524 2.91667C4.37524 2.11458 3.71899 1.45833 2.91691 1.45833Z" fill="white"/>
<path d="M5.1044 16.7709H7.80232V18.2292H5.1044V16.7709Z" fill="white"/>
<path d="M2.91691 20.4167C1.31274 20.4167 0.000244141 19.1042 0.000244141 17.5C0.000244141 15.8959 1.31274 14.5834 2.91691 14.5834C4.52108 14.5834 5.83358 15.8959 5.83358 17.5C5.83358 19.1042 4.52108 20.4167 2.91691 20.4167ZM2.91691 16.0417C2.11483 16.0417 1.45858 16.698 1.45858 17.5C1.45858 18.3021 2.11483 18.9584 2.91691 18.9584C3.71899 18.9584 4.37524 18.3021 4.37524 17.5C4.37524 16.698 3.71899 16.0417 2.91691 16.0417Z" fill="white"/>
<path d="M2.91691 20.4167C1.31274 20.4167 0.000244141 19.1042 0.000244141 17.5C0.000244141 15.8959 1.31274 14.5834 2.91691 14.5834C4.52108 14.5834 5.83358 15.8959 5.83358 17.5C5.83358 19.1042 4.52108 20.4167 2.91691 20.4167ZM2.91691 16.0417C2.11483 16.0417 1.45858 16.698 1.45858 17.5C1.45858 18.3021 2.11483 18.9584 2.91691 18.9584C3.71899 18.9584 4.37524 18.3021 4.37524 17.5C4.37524 16.698 3.71899 16.0417 2.91691 16.0417Z" fill="white"/>
</g>
<defs>
<clipPath id="clip0_825_3213">
<rect width="35" height="35" fill="white" transform="translate(0.000244141)"/>
</clipPath>
</defs>
</svg>
