<svg width="35" height="35" viewBox="0 0 35 35" fill="none" xmlns="http://www.w3.org/2000/svg">
<g clip-path="url(#clip0_825_3329)">
<path d="M32.2294 24.7188H30.7711V6.19796H4.22942V24.7188H2.77109V4.73962H32.2294V24.7188Z" fill="white"/>
<path d="M22.7502 16.4792L21.7294 15.4584L23.1877 14.073L21.7294 12.6876L22.7502 11.6667L25.2294 14.073L22.7502 16.4792Z" fill="white"/>
<path d="M12.2502 16.4792L9.77106 14.073L12.2502 11.6667L13.2711 12.6876L11.8127 14.073L13.2711 15.4584L12.2502 16.4792Z" fill="white"/>
<path d="M17.5141 10.8639L18.933 11.2022L17.4782 17.3037L16.0592 16.9654L17.5141 10.8639Z" fill="white"/>
<path d="M9.98981 19.1042H11.4481V20.5626H9.98981V19.1042Z" fill="white"/>
<path d="M13.344 19.1042H14.8023V20.5626H13.344V19.1042Z" fill="white"/>
<path d="M16.7711 19.1042H18.2294V20.5626H16.7711V19.1042Z" fill="white"/>
<path d="M20.1982 19.1042H21.6565V20.5626H20.1982V19.1042Z" fill="white"/>
<path d="M23.5523 19.1042H25.0107V20.5626H23.5523V19.1042Z" fill="white"/>
<path d="M33.1773 30.2605H1.82316L0.000244141 24.1355H35.1461L33.1773 30.2605ZM2.84399 28.8022H32.0836L33.1044 25.5938H1.89608L2.84399 28.8022Z" fill="white"/>
</g>
<defs>
<clipPath id="clip0_825_3329">
<rect width="35" height="35" fill="white" transform="translate(0.000244141)"/>
</clipPath>
</defs>
</svg>
