<svg width="35" height="35" viewBox="0 0 35 35" fill="none" xmlns="http://www.w3.org/2000/svg">
<g clip-path="url(#clip0_893_4331)">
<path d="M6.052 10.1354V0.4375H11.8853V5.97917L6.052 10.1354ZM7.51034 1.89583V7.36458L10.427 5.25V1.89583H7.51034Z" fill="white"/>
<path d="M30.4791 34.5626H4.52075V14.5834L17.4999 5.323L30.4791 14.5834V34.5626ZM5.97908 33.1042H29.0207V15.3126L17.4999 7.073L5.97908 15.3126V33.1042Z" fill="white"/>
<path d="M33.5416 18.5209L17.4999 7.073L1.45825 18.5209V11.6667L17.4999 0.291748L33.5416 11.6667V18.5209ZM17.4999 5.323L32.0833 15.7501V12.3959L17.4999 2.04175L2.91659 12.3959V15.6772L17.4999 5.323Z" fill="white"/>
<path d="M0 33.1042H35V34.5626H0V33.1042Z" fill="white"/>
<path d="M25.0833 25.6668H9.84375V20.8542H25.0833V25.6668ZM11.3021 24.2084H23.625V22.3126H11.3021V24.2084Z" fill="white"/>
<path d="M26.2499 22.3125H8.677V15.75H26.2499V22.3125ZM10.1353 20.8542H24.7916V17.2083H10.1353V20.8542Z" fill="white"/>
<path d="M26.2499 30.7708H8.677V24.2083H26.2499V30.7708ZM10.1353 29.3124H24.7916V25.6666H10.1353V29.3124Z" fill="white"/>
<path d="M11.8125 18.302H13.2708V19.7603H11.8125V18.302Z" fill="white"/>
<path d="M15.0938 18.302H16.4792V19.7603H15.0938V18.302Z" fill="white"/>
<path d="M18.302 18.302H19.7603V19.7603H18.302V18.302Z" fill="white"/>
<path d="M21.5833 18.302H22.9687V19.7603H21.5833V18.302Z" fill="white"/>
<path d="M11.8125 26.8333H13.2708V28.2916H11.8125V26.8333Z" fill="white"/>
<path d="M15.0938 26.8333H16.4792V28.2916H15.0938V26.8333Z" fill="white"/>
<path d="M18.302 26.8333H19.7603V28.2916H18.302V26.8333Z" fill="white"/>
<path d="M21.5833 26.8333H22.9687V28.2916H21.5833V26.8333Z" fill="white"/>
</g>
<defs>
<clipPath id="clip0_893_4331">
<rect width="35" height="35" fill="white"/>
</clipPath>
</defs>
</svg>
