<svg width="35" height="35" viewBox="0 0 35 35" fill="none" xmlns="http://www.w3.org/2000/svg">
<g clip-path="url(#clip0_893_4302)">
<path d="M21.2188 35H13.6354L13.2708 30.4792C12.4688 30.2604 11.8125 29.9687 11.1563 29.6042L7.65625 32.5208L2.26042 27.2708L5.17708 23.7708C4.88542 23.1146 4.59375 22.4583 4.30208 21.6562L-0.21875 21.2917V13.7083L4.375 13.3437C4.59375 12.6875 4.88542 11.9583 5.25 11.2292L2.33333 7.72917L7.72917 2.47917L11.2292 5.39583C11.8854 5.10417 12.5417 4.8125 13.3438 4.52083L13.6354 0H21.2188L21.5833 4.52083C22.3854 4.73958 23.0417 5.03125 23.6979 5.39583L27.1979 2.47917L32.5938 7.72917L29.6771 11.2292C29.9688 11.8854 30.2604 12.5417 30.5521 13.3437L35.0729 13.7083V21.2917L30.5521 21.6562C30.3333 22.4583 30.0417 23.1146 29.6771 23.7708L32.5938 27.2708L27.1979 32.5208L23.6979 29.6042C23.0417 29.8958 22.3854 30.1875 21.5833 30.4792L21.2188 35ZM14.9479 33.5417H19.9063L20.2708 29.3125L20.7083 29.1667C21.8021 28.875 22.6042 28.5104 23.4062 28.0729L23.8438 27.8542L27.125 30.625L30.625 27.125L27.8542 23.9167L28.0729 23.4792C28.5104 22.75 28.875 21.875 29.1667 20.7812L29.3125 20.3437L33.5417 19.9792V15.0208L29.3125 14.6562L29.1667 14.2187C28.875 13.125 28.5104 12.3229 28.0729 11.5208L27.8542 11.0833L30.625 7.875L27.125 4.375L23.8438 7.14583L23.4062 6.92708C22.6771 6.48958 21.8021 6.125 20.7083 5.83333L20.2708 5.6875L19.9063 1.45833H14.9479L14.5833 5.61458L14.1458 5.76042C13.0521 6.05208 12.25 6.41667 11.4479 6.85417L11.0104 7.07292L7.72917 4.375L4.22917 7.875L7 11.0833L6.78125 11.5208C6.19792 12.4687 5.90625 13.3437 5.6875 14.1458L5.61458 14.6562L1.38542 15.0208V19.9792L5.61458 20.3437L5.76042 20.7812C6.05208 21.875 6.41667 22.6771 6.85417 23.4792L7.07292 23.9167L4.30208 27.125L7.80208 30.625L11.0104 27.8542L11.4479 28.0729C12.1771 28.5104 13.0521 28.875 14.1458 29.1667L14.5833 29.3125L14.9479 33.5417Z" fill="white"/>
<path d="M17.5 28.2187C11.5938 28.2187 6.78125 23.4062 6.78125 17.5C6.78125 11.5937 11.5938 6.78125 17.5 6.78125C23.4063 6.78125 28.2188 11.5937 28.2188 17.5C28.2188 23.4062 23.4063 28.2187 17.5 28.2187ZM17.5 8.23958C12.3958 8.23958 8.23958 12.3958 8.23958 17.5C8.23958 22.6042 12.3958 26.7604 17.5 26.7604C22.6042 26.7604 26.7604 22.6042 26.7604 17.5C26.7604 12.3958 22.6042 8.23958 17.5 8.23958Z" fill="white"/>
<path d="M17.5 28.2187C11.5938 28.2187 6.78125 23.4062 6.78125 17.5C6.78125 11.5937 11.5938 6.78125 17.5 6.78125C23.4063 6.78125 28.2188 11.5937 28.2188 17.5C28.2188 23.4062 23.4063 28.2187 17.5 28.2187ZM17.5 8.23958C12.3958 8.23958 8.23958 12.3958 8.23958 17.5C8.23958 22.6042 12.3958 26.7604 17.5 26.7604C22.6042 26.7604 26.7604 22.6042 26.7604 17.5C26.7604 12.3958 22.6042 8.23958 17.5 8.23958Z" fill="white"/>
<path d="M16.7708 22.0208H18.1562V27.4895H16.7708V22.0208Z" fill="white"/>
<path d="M17.5 22.75C16.1875 22.75 15.0938 21.6563 15.0938 20.3438C15.0938 19.0313 16.1875 17.9375 17.5 17.9375C18.8125 17.9375 19.9063 19.0313 19.9063 20.3438C19.9063 21.6563 18.8125 22.75 17.5 22.75ZM17.5 19.3958C16.9896 19.3958 16.5521 19.8333 16.5521 20.3438C16.5521 20.8542 16.9896 21.2917 17.5 21.2917C18.0104 21.2917 18.4479 20.8542 18.4479 20.3438C18.4479 19.8333 18.0104 19.3958 17.5 19.3958Z" fill="white"/>
<path d="M16.7708 7.5105H18.1562V12.9792H16.7708V7.5105Z" fill="white"/>
<path d="M17.5 17.0625C16.1875 17.0625 15.0938 15.9688 15.0938 14.6563C15.0938 13.3438 16.1875 12.25 17.5 12.25C18.8125 12.25 19.9063 13.3438 19.9063 14.6563C19.9063 15.9688 18.8125 17.0625 17.5 17.0625ZM17.5 13.7083C16.9896 13.7083 16.5521 14.1458 16.5521 14.6563C16.5521 15.1667 16.9896 15.6042 17.5 15.6042C18.0104 15.6042 18.4479 15.1667 18.4479 14.6563C18.4479 14.1458 18.0104 13.7083 17.5 13.7083Z" fill="white"/>
<path d="M22.531 20.1978H23.9164V25.6665H22.531V20.1978Z" fill="white"/>
<path d="M23.2602 20.927C21.9478 20.927 20.854 19.8333 20.854 18.5208C20.854 17.2083 21.9478 16.1145 23.2602 16.1145C24.5727 16.1145 25.6665 17.2083 25.6665 18.5208C25.6665 19.8333 24.5727 20.927 23.2602 20.927ZM23.2602 17.5728C22.7498 17.5728 22.3123 18.0103 22.3123 18.5208C22.3123 19.0312 22.7498 19.4687 23.2602 19.4687C23.7707 19.4687 24.2082 19.0312 24.2082 18.5208C24.2082 18.0103 23.7707 17.5728 23.2602 17.5728Z" fill="white"/>
<path d="M11.0103 20.1978H12.3957V25.6665H11.0103V20.1978Z" fill="white"/>
<path d="M11.7395 20.927C10.427 20.927 9.33325 19.8333 9.33325 18.5208C9.33325 17.2083 10.427 16.1145 11.7395 16.1145C13.052 16.1145 14.1458 17.2083 14.1458 18.5208C14.1458 19.8333 13.052 20.927 11.7395 20.927ZM11.7395 17.5728C11.2291 17.5728 10.7916 18.0103 10.7916 18.5208C10.7916 19.0312 11.2291 19.4687 11.7395 19.4687C12.2499 19.4687 12.6874 19.0312 12.6874 18.5208C12.6874 18.0103 12.2499 17.5728 11.7395 17.5728Z" fill="white"/>
</g>
<defs>
<clipPath id="clip0_893_4302">
<rect width="35" height="35" fill="white"/>
</clipPath>
</defs>
</svg>
